<?xml version="1.0" encoding="utf-8"?>
<!-- Generator: Adobe Illustrator 23.0.1, SVG Export Plug-In . SVG Version: 6.00 Build 0)  -->
<svg version="1.1" id="Layer_1" xmlns="http://www.w3.org/2000/svg" xmlns:xlink="http://www.w3.org/1999/xlink" x="0px" y="0px"
	 viewBox="0 0 70 70" style="enable-background:new 0 0 70 70;" xml:space="preserve">
<style type="text/css">
	.st0{fill:#FFFCD5;}
	.st1{fill:#FFEDA9;}
	.st2{fill:#FFE278;}
	.st3{fill:#FFFFFF;}
	.st4{fill:#BACAD3;}
	.st5{fill:#F79548;}
	.st6{fill:#F37321;}
	.st7{fill:#FDD0A6;}
	.st8{fill:#310E31;}
	.st9{fill:#FFE27A;}
	.st10{fill:#FFCB5B;}
	.st11{fill:#F6B545;}
	.st12{fill:#FCBB76;}
	.st13{fill:#D54B3B;}
	.st14{fill:#4C9CD6;}
	.st15{fill:#3689C9;}
	.st16{fill:#ABE1FA;}
</style>
<g>
	<circle class="st0" cx="35" cy="35" r="35"/>
</g>
<g>
	<circle class="st1" cx="35" cy="35" r="33"/>
</g>
<g>
	<circle class="st2" cx="35" cy="35" r="31"/>
</g>
<g>
	<g>
		<rect x="12" y="24" class="st3" width="6" height="5"/>
	</g>
	<g>
		<path class="st4" d="M17,28h-2v-2c0-0.55,0.45-1,1-1h1V28z"/>
	</g>
	<g>
		<circle class="st5" cx="15" cy="39" r="11"/>
	</g>
	<g>
		<g>
			<path class="st6" d="M24.05,34.75c-0.53-1.12-2.11-1.08-2.56,0.07c-0.79,1.99-2.3,4.23-4.37,6.3c-2.07,2.07-4.31,3.57-6.3,4.37
				c-1.15,0.46-1.19,2.04-0.07,2.56c3.71,1.74,8.26,1.08,11.32-1.98C25.13,43.01,25.79,38.46,24.05,34.75z"/>
		</g>
	</g>
	<g>
		<ellipse transform="matrix(0.7071 -0.7071 0.7071 0.7071 -21.4726 18.6377)" class="st7" cx="11.76" cy="35.24" rx="3" ry="2.5"/>
	</g>
	<path class="st8" d="M19,27.7V26c0-1.65-1.35-3-3-3V7c0-0.55-0.45-1-1-1s-1,0.45-1,1v16c-1.65,0-3,1.35-3,3v1.7
		C6.35,29.35,3,33.79,3,39c0,6.62,5.38,12,12,12s12-5.38,12-12C27,33.79,23.65,29.35,19,27.7z M13,26c0-0.55,0.45-1,1-1h2
		c0.55,0,1,0.45,1,1v1.18C16.35,27.07,15.68,27,15,27c-0.68,0-1.35,0.07-2,0.18V26z M15,49C9.49,49,5,44.51,5,39
		c0-5.51,4.49-10,10-10c5.51,0,10,4.49,10,10C25,44.51,20.51,49,15,49z"/>
</g>
<g>
	<g>
		<rect x="32" y="14" class="st3" width="6" height="4"/>
	</g>
	<g>
		<path class="st4" d="M37,18h-2v-2c0-0.55,0.45-1,1-1h1V18z"/>
	</g>
	<g>
		<path class="st9" d="M48.73,44.87c-1.57-1.63-1.57-4.12,0-5.75C50.17,37.63,51,35.88,51,34c0-3.68-3.18-6.89-7.92-8.63
			c-3.21-1.17-5.58-3.92-6.07-7.3L37,18h-4l-0.01,0.08c-0.48,3.38-2.86,6.12-6.07,7.3C22.18,27.11,19,30.32,19,34
			c0,1.88,0.83,3.63,2.27,5.13c1.57,1.63,1.57,4.12,0,5.75C19.83,46.37,19,48.12,19,50c0,3.54,2.95,6.65,7.41,8.43
			c4.16,1.66,7.38,5.04,8.54,9.36L35,68l0.06-0.21c1.15-4.32,4.38-7.7,8.54-9.36C48.05,56.65,51,53.54,51,50
			C51,48.12,50.17,46.37,48.73,44.87z"/>
	</g>
	<g>
		<path class="st10" d="M48.02,38.42C49.32,37.07,50,35.54,50,34c0-3.1-2.78-6.05-7.27-7.69c-3.36-1.23-5.81-3.99-6.57-7.31h-0.85
			c0.2,3.32,0.86,6.08,1.75,7.31c0.66,0.9,1.17,2.19,1.51,3.69c0.01,0.05,0.02,0.11,0.03,0.18C39.26,34.3,35.97,38,31.8,38l-10.15,0
			c-0.01,0.04,0,0.01-0.02,0.04c0.6,0.52,1.05,1.13,1.35,1.8C23.59,41.2,25.03,42,26.53,42h4c4.4,0,8.16,3.35,8.46,7.73
			C39,49.83,39,49.92,39,50c0,3-0.68,5.81-1.81,7.5c-0.99,1.48-1.76,4.17-2.19,7.55c1.61-3.39,4.5-6.07,8.22-7.55
			C47.47,55.81,50,53,50,50c0-1.54-0.68-3.07-1.98-4.42C46.11,43.59,46.11,40.41,48.02,38.42z"/>
	</g>
	<g>
		<path class="st11" d="M48.01,38.43C49.31,37.08,50,35.54,50,34c0-3.1-2.78-6.05-7.27-7.69c-3.36-1.23-5.81-3.99-6.57-7.31h-0.23
			c0.6,3.32,2.57,6.08,5.26,7.31C44.77,27.95,47,30.9,47,34c0,1.54-0.55,3.08-1.59,4.43c-1.54,2-1.54,5.13,0,7.13
			C46.45,46.92,47,48.46,47,50c0,3-2.03,5.81-5.42,7.5c-2.98,1.48-5.29,4.17-6.58,7.55c1.61-3.39,4.5-6.07,8.22-7.55
			C47.47,55.81,50,53,50,50c0-1.54-0.69-3.08-1.99-4.43C46.08,43.57,46.08,40.43,48.01,38.43z"/>
	</g>
	<g>
		<g>
			<g>
				<path class="st0" d="M33.18,25c0.46,0,0.85-0.31,0.95-0.76c0.31-1.39,0.54-3.22,0.63-5.29h-0.62c-0.29,1.71-0.9,3.26-1.75,4.53
					C31.95,24.13,32.39,25,33.18,25L33.18,25z"/>
			</g>
			<g>
				<path class="st0" d="M28.72,27c-0.42,0-0.84,0.12-1.17,0.38C25.32,29.07,24,31.46,24,33.95c0,0.05,0,0.1,0,0.15
					c0.03,1.05,0.94,1.9,1.99,1.9l3.98,0c1.12,0,2.03-0.91,2.03-2.03v-0.02c0-2.09,0.25-4.1,0.69-5.7c0.17-0.63-0.28-1.25-0.93-1.25
					H28.72z"/>
			</g>
		</g>
		<g>
			<path class="st0" d="M32.79,56c-0.5-1.64-0.79-3.79-0.79-6.05c0-0.62,0.02-1.23,0.07-1.83c0.08-1.15-0.84-2.12-1.99-2.12H26.4
				c-0.79,0-1.53,0.45-1.83,1.18C24.2,48.07,24,49.01,24,49.95c0,3,1.86,5.81,4.97,7.5c0.41,0.22,0.81,0.48,1.2,0.76
				c0.69,0.51,1.52,0.8,2.38,0.79c0.69-0.01,1.12-0.75,0.87-1.39C33.15,56.96,32.88,56.29,32.79,56z"/>
		</g>
	</g>
	<g>
		<circle class="st5" cx="35" cy="34" r="2"/>
	</g>
	<g>
		<ellipse class="st6" cx="43.5" cy="34" rx="1.5" ry="2"/>
	</g>
	<g>
		<ellipse class="st5" cx="21" cy="34" rx="1" ry="2"/>
	</g>
	<g>
		<ellipse class="st12" cx="27.5" cy="34" rx="1.5" ry="2"/>
	</g>
	<g>
		<ellipse class="st13" cx="49" cy="34" rx="1" ry="2"/>
	</g>
	<g>
		<circle class="st5" cx="35" cy="50" r="2"/>
	</g>
	<g>
		<ellipse class="st6" cx="43.5" cy="50" rx="1.5" ry="2"/>
	</g>
	<g>
		<ellipse class="st5" cx="21" cy="50" rx="1" ry="2"/>
	</g>
	<g>
		<ellipse class="st12" cx="27.5" cy="50" rx="1.5" ry="2"/>
	</g>
	<g>
		<ellipse class="st13" cx="49" cy="50" rx="1" ry="2"/>
	</g>
	<path class="st8" d="M49.45,39.82C51.12,38.08,52,36.07,52,34c0-3.96-3.29-7.63-8.58-9.56c-2.56-0.94-4.47-2.97-5.2-5.48
		C38.67,18.85,39,18.47,39,18v-2c0-1.65-1.35-3-3-3V2c0-0.55-0.45-1-1-1s-1,0.45-1,1v11c-1.65,0-3,1.35-3,3v2
		c0,0.47,0.34,0.85,0.78,0.96c-0.71,2.49-2.62,4.54-5.2,5.48C21.29,26.37,18,30.04,18,34c0,2.07,0.88,4.09,2.55,5.82
		c1.2,1.24,1.2,3.12,0,4.36C18.88,45.91,18,47.93,18,50c0,3.85,3,7.35,8.04,9.35c4,1.59,6.89,4.76,7.94,8.69l0.06,0.21
		C34.15,68.7,34.55,69,35,69s0.85-0.3,0.97-0.74l0.06-0.21c1.05-3.93,3.94-7.1,7.94-8.69C49,57.35,52,53.85,52,50
		c0-2.07-0.88-4.08-2.55-5.82C48.25,42.94,48.25,41.06,49.45,39.82z M33,16c0-0.55,0.45-1,1-1h2c0.55,0,1,0.45,1,1v1h-4V16z
		 M43.22,57.5c-3.72,1.48-6.62,4.17-8.22,7.55c-1.61-3.39-4.5-6.07-8.22-7.55C22.53,55.81,20,53,20,50c0-1.55,0.69-3.08,1.99-4.43
		c1.92-2,1.92-5.13,0-7.13C20.69,37.08,20,35.55,20,34c0-3.1,2.78-6.05,7.27-7.69c3.34-1.22,5.78-3.95,6.56-7.31h2.34
		c0.76,3.32,3.21,6.09,6.57,7.31C47.22,27.95,50,30.9,50,34c0,1.55-0.69,3.08-1.99,4.43c-1.92,2-1.92,5.13,0,7.13
		C49.31,46.92,50,48.46,50,50C50,53,47.47,55.81,43.22,57.5z"/>
</g>
<g>
	<g>
		<rect x="54" y="30" class="st3" width="6" height="5"/>
	</g>
	<g>
		<path class="st4" d="M59,34h-2v-2c0-0.55,0.45-1,1-1h1V34z"/>
	</g>
	<g>
		<circle class="st14" cx="57" cy="45" r="11"/>
	</g>
	<g>
		<g>
			<path class="st15" d="M66.05,40.75c-0.53-1.12-2.11-1.08-2.56,0.07c-0.79,1.99-2.3,4.23-4.37,6.3c-2.07,2.07-4.31,3.57-6.3,4.37
				c-1.15,0.46-1.19,2.04-0.07,2.56c3.71,1.74,8.26,1.08,11.32-1.98C67.13,49.01,67.79,44.46,66.05,40.75z"/>
		</g>
	</g>
	<g>
		
			<ellipse transform="matrix(0.7071 -0.7071 0.7071 0.7071 -12.7065 49.8009)" class="st16" cx="53.76" cy="40.24" rx="3" ry="2.5"/>
	</g>
	<path class="st8" d="M61,33.7V32c0-1.65-1.35-3-3-3V7c0-0.55-0.45-1-1-1s-1,0.45-1,1v22c-1.65,0-3,1.35-3,3v1.7
		c-4.65,1.65-8,6.09-8,11.3c0,6.62,5.38,12,12,12s12-5.38,12-12C69,39.79,65.65,35.35,61,33.7z M55,32c0-0.55,0.45-1,1-1h1
		c0,0,0,0,0,0s0,0,0,0h1c0.55,0,1,0.45,1,1v1.18C58.35,33.07,57.68,33,57,33s-1.35,0.07-2,0.18V32z M57,55c-5.51,0-10-4.49-10-10
		s4.49-10,10-10s10,4.49,10,10S62.51,55,57,55z"/>
	<g>
		<path class="st2" d="M61,45.12l-4-3l-3.86,2.89l-3-3l-3.11,2.33C47.02,44.57,47,44.78,47,45c0,0.98,0.15,1.92,0.41,2.82l2.45-1.84
			l3,3L57,45.88l4,3l3.86-2.89l1.75,1.75C66.86,46.86,67,45.95,67,45c0-0.41-0.03-0.81-0.08-1.2l-1.78-1.78L61,45.12z"/>
	</g>
	<g>
		<path class="st11" d="M66.92,43.79l-1.78-1.78L61,45.12l-0.06-0.05c-0.55,0.69-1.15,1.38-1.82,2.04c-0.07,0.07-0.13,0.13-0.2,0.19
			L61,48.88l3.86-2.89l1.74,1.74c0.04-0.16,0.08-0.31,0.12-0.47c0.06-0.25,0.12-0.49,0.16-0.75c0.04-0.29,0.06-0.57,0.08-0.86
			c0.01-0.18,0.04-0.36,0.04-0.55C67,44.66,66.97,44.23,66.92,43.79z"/>
	</g>
</g>
<g>
	<circle class="st3" cx="11" cy="53" r="1"/>
</g>
<g>
	<circle class="st5" cx="52" cy="65" r="1"/>
</g>
<g>
	<circle class="st5" cx="3" cy="26" r="1"/>
</g>
<g>
	<circle class="st10" cx="50" cy="18" r="1"/>
</g>
<g>
	<circle class="st3" cx="20" cy="13" r="1"/>
</g>
<g>
	<circle class="st10" cx="10" cy="23" r="1"/>
</g>
<g>
	<circle class="st10" cx="45" cy="11" r="1"/>
</g>
<g>
	<circle class="st5" cx="44.5" cy="16.5" r="0.5"/>
</g>
<g>
	<circle class="st5" cx="26.5" cy="20.5" r="0.5"/>
</g>
<g>
	<circle class="st5" cx="7.5" cy="18.5" r="0.5"/>
</g>
<g>
	<circle class="st5" cx="48.5" cy="9.5" r="0.5"/>
</g>
<g>
	<circle class="st5" cx="21.5" cy="59.5" r="0.5"/>
</g>
<g>
	<circle class="st5" cx="64.5" cy="28.5" r="0.5"/>
</g>
<g>
	<circle class="st3" cx="40.5" cy="8.5" r="0.5"/>
</g>
<g>
	<circle class="st3" cx="49.5" cy="13.5" r="0.5"/>
</g>
<g>
	<circle class="st10" cx="26.5" cy="8.5" r="0.5"/>
</g>
<g>
	<circle class="st3" cx="11.5" cy="17.5" r="0.5"/>
</g>
<g>
	<circle class="st3" cx="45.5" cy="62.5" r="0.5"/>
</g>
<g>
	<circle class="st3" cx="60.5" cy="22.5" r="0.5"/>
</g>
<g>
	<circle class="st3" cx="29.5" cy="10.5" r="0.5"/>
</g>
<g>
	<circle class="st10" cx="16.5" cy="64.5" r="0.5"/>
</g>
<g>
	<circle class="st10" cx="21.5" cy="19.5" r="0.5"/>
</g>
<g>
	<circle class="st10" cx="27.5" cy="63.5" r="0.5"/>
</g>
<g>
	<circle class="st10" cx="61.5" cy="26.5" r="0.5"/>
</g>
<g>
	<circle class="st10" cx="48.5" cy="60.5" r="0.5"/>
</g>
<g>
	<circle class="st10" cx="54.5" cy="61.5" r="0.5"/>
</g>
<g>
	<circle class="st5" cx="24.5" cy="14.5" r="1.5"/>
</g>
<g>
	<circle class="st3" cx="46.5" cy="21.5" r="1.5"/>
</g>
<g>
	<circle class="st5" cx="13.5" cy="58.5" r="1.5"/>
</g>
</svg>
