<?xml version="1.0" encoding="utf-8"?>
<!-- Generator: Adobe Illustrator 23.0.1, SVG Export Plug-In . SVG Version: 6.00 Build 0)  -->
<svg version="1.1" id="Layer_1" xmlns="http://www.w3.org/2000/svg" xmlns:xlink="http://www.w3.org/1999/xlink" x="0px" y="0px"
	 viewBox="0 0 70 70" style="enable-background:new 0 0 70 70;" xml:space="preserve">
<style type="text/css">
	.st0{fill:#9AC75E;}
	.st1{fill:#649941;}
	.st2{fill:#310E31;}
	.st3{fill:#71AC43;}
	.st4{fill:#FFF0D8;}
	.st5{fill:#FFE1BD;}
	.st6{fill:#FFD49C;}
	.st7{fill:#FFCB5B;}
	.st8{fill:#F6B545;}
	.st9{fill:#F19920;}
	.st10{fill:#FFEDA9;}
	.st11{fill:#FCAF17;}
	.st12{fill:#EF3B3D;}
	.st13{fill:#D2202C;}
	.st14{fill:#FFFFFF;}
</style>
<path class="st0" d="M10.08,59.08c1.44-0.26,2.78,0.1,3.82,0.86c0.03,0.02,0.07,0.03,0.1,0.05v-4.85C13.68,55.06,13.35,55,13,55
	c-2.21,0-4,1.79-4,4c0,0.14,0.03,0.27,0.04,0.41C9.37,59.27,9.72,59.15,10.08,59.08z"/>
<path class="st1" d="M40.08,59.96C40.9,59.36,41.9,59,43,59c0.72,0,1.39,0.17,2,0.44v-5.42C44.16,53.39,43.13,53,42,53
	c-0.71,0-1.39,0.15-2,0.42V60C40.02,59.98,40.05,59.98,40.08,59.96z"/>
<g>
	<path class="st2" d="M40,54.56c0.59-0.34,1.27-0.56,2-0.56c1.2,0,2.27,0.54,3,1.38v-2.57C44.12,52.3,43.09,52,42,52
		c-0.7,0-1.37,0.13-2,0.35V54.56z"/>
</g>
<path class="st1" d="M29.92,59.96C29.1,59.36,28.1,59,27,59c-0.72,0-1.39,0.17-2,0.44v-5.42c0.84-0.63,1.87-1.02,3-1.02
	c0.71,0,1.39,0.15,2,0.42V60C29.98,59.98,29.95,59.98,29.92,59.96z"/>
<g>
	<path class="st2" d="M30,54.56C29.41,54.21,28.73,54,28,54c-1.2,0-2.27,0.54-3,1.38v-2.57C25.88,52.3,26.91,52,28,52
		c0.7,0,1.37,0.13,2,0.35V54.56z"/>
</g>
<path class="st3" d="M57,59.43c0.87-0.39,1.87-0.53,2.92-0.34c0.71,0.13,1.38,0.42,1.96,0.83C61.95,59.62,62,59.32,62,59
	c0-2.21-1.79-4-4-4c-0.35,0-0.68,0.06-1,0.14V59.43z"/>
<g>
	<circle class="st4" cx="35" cy="11" r="11"/>
</g>
<g>
	<circle class="st5" cx="35" cy="11" r="9"/>
</g>
<g>
	<circle class="st6" cx="35" cy="11" r="7"/>
</g>
<g>
	<circle class="st4" cx="51" cy="28" r="11"/>
</g>
<g>
	<circle class="st5" cx="51" cy="28" r="9"/>
</g>
<g>
	<circle class="st6" cx="51" cy="28" r="7"/>
</g>
<g>
	<circle class="st4" cx="19" cy="24" r="11"/>
</g>
<g>
	<circle class="st5" cx="19" cy="24" r="9"/>
</g>
<g>
	<circle class="st6" cx="19" cy="25" r="7"/>
</g>
<g>
	<g>
		<path class="st7" d="M26,69H13l0,0c0.66-1.32,1-2.77,1-4.24V44.6c0-2.35-0.7-4.65-2-6.61l0,0h14l0,0c-0.66,1.99-1,4.07-1,6.16
			v16.71C25,63.62,25.34,66.34,26,69L26,69z"/>
	</g>
	<g>
		<path class="st8" d="M24.28,42h0.98c0.17-1.02,0.41-2.02,0.74-3h-0.72H24h-5h-6.99c0,0.01,0,0.01-0.01,0.01
			c1.3,1.95,1.99,4.25,1.99,6.59v4.95c0.18,0.17,0.28,0.27,0.46,0.45c1.4,0.02,2.54-1.11,2.54-2.5v-2c0-0.28,0.22-0.5,0.5-0.5
			c0.01,0,0.01,0,0.02,0c0.81-0.01,1.48,0.63,1.48,1.44V68h6l-1-5V44.61C24,43.72,24.1,42.85,24.28,42z"/>
	</g>
	<g>
		<g>
			<path class="st9" d="M24.28,42h0.98c0.17-1.02,0.41-2.02,0.74-3h-0.72H24c-0.23,0.98-1.23,3-1.23,3c-0.13,0.85-0.2,1.72-0.2,2.61
				v13.34c0,3.36,0.24,6.72,0.71,10.05H25l-1-5V44.61C24,43.72,24.1,42.85,24.28,42z"/>
		</g>
	</g>
	<g>
		<path class="st10" d="M15,64.76c0,1.1-0.18,2.19-0.51,3.24h1.09c0.26-1.04,0.39-2.14,0.39-3.24V53c0-0.55-0.42-1-0.97-1V64.76z"/>
	</g>
	<g>
		<path class="st11" d="M16.4,32.53C16.91,31.62,17.88,31,19,31c1.15,0,2.14,0.65,2.64,1.6c0.82-0.79,1.36-2,1.36-3.6c0-3-4-11-4-11
			s-4,8-4,11C15,30.55,15.58,31.74,16.4,32.53z"/>
	</g>
	<g>
		<path class="st10" d="M17.82,31.57c0.23-0.41,0.67-0.69,1.18-0.69c0.52,0,0.97,0.3,1.19,0.73c0.37-0.36,0.61-0.9,0.61-1.63
			C20.81,28.62,19,25,19,25s-1.81,3.62-1.81,4.97C17.19,30.68,17.45,31.21,17.82,31.57z"/>
	</g>
	<g>
		<path class="st2" d="M21.64,33.6c-0.05,0-0.1,0-0.16-0.01c-0.31-0.05-0.58-0.24-0.73-0.52C20.41,32.41,19.73,32,19,32
			c-0.72,0-1.37,0.38-1.73,1.03c-0.15,0.27-0.42,0.45-0.73,0.5c-0.31,0.04-0.62-0.06-0.84-0.27C14.6,32.19,14,30.68,14,29
			c0-3.12,3.67-11.47,4.09-12.41C18.25,16.23,18.6,16,19,16s0.75,0.23,0.91,0.59C20.33,17.53,24,25.88,24,29
			c0,2.25-0.91,3.59-1.67,4.33C22.15,33.51,21.9,33.6,21.64,33.6z M19,30c0.97,0,1.89,0.35,2.6,0.97C21.86,30.42,22,29.75,22,29
			c0-1.79-1.73-6.37-3-9.45c-1.27,3.08-3,7.67-3,9.45c0,0.82,0.19,1.45,0.44,1.94C17.15,30.34,18.05,30,19,30z"/>
	</g>
	<g>
		<path class="st7" d="M12,38.13v9.37c0,0.83,0.67,1.5,1.5,1.5l0,0c0.83,0,1.5-0.67,1.5-1.5v-2c0-0.83,0.67-1.5,1.5-1.5l0,0
			c0.83,0,1.5-0.67,1.5-1.5v-1c0-0.83,0.67-1.5,1.5-1.5h5.7c1,0,1.8-0.81,1.8-1.8l0,0c0-1.14-1.04-1.99-2.16-1.77l-0.17,0.03
			C22.89,36.82,21.09,37,19.28,37l0,0c-1.51,0-2.92-0.16-4.4-0.48l-0.78-0.17C13,36.17,12,37.01,12,38.13z"/>
		<path class="st2" d="M26.34,40.75C27.31,40.32,28,39.34,28,38.2c0-0.84-0.37-1.63-1.03-2.17c-0.65-0.53-1.5-0.75-2.33-0.58
			l-0.17,0.03c-1.47,0.3-2.97,0.46-4.47,0.5V34c0-0.55-0.45-1-1-1s-1,0.45-1,1v1.95c-0.96-0.06-1.91-0.2-2.91-0.41l-0.82-0.18
			c-0.81-0.14-1.64,0.09-2.27,0.63c-0.64,0.53-1,1.31-1,2.14v9.37c0,1.21,0.86,2.22,2,2.45v14.81c0,1.31-0.31,2.62-0.89,3.79
			c-0.15,0.31-0.14,0.68,0.04,0.97S12.65,70,13,70h13c0.31,0,0.6-0.14,0.79-0.38s0.26-0.56,0.18-0.86C26.33,66.18,26,63.53,26,60.88
			V44.16C26,43.01,26.12,41.88,26.34,40.75z M13,38.13c0-0.32,0.18-0.52,0.28-0.61c0.09-0.08,0.28-0.2,0.5-0.2
			c0.03,0,0.07,0,0.1,0.01l0.78,0.17c1.59,0.34,3.06,0.5,4.61,0.5c1.87,0,3.75-0.19,5.59-0.55l0.17-0.04
			c0.32-0.07,0.56,0.08,0.67,0.17S26,37.87,26,38.2c0,0.44-0.36,0.8-0.8,0.8h-5.7c-1.38,0-2.5,1.12-2.5,2.5v1
			c0,0.28-0.22,0.5-0.5,0.5c-1.38,0-2.5,1.12-2.5,2.5v2c0,0.28-0.22,0.5-0.5,0.5S13,47.78,13,47.5V38.13z M14.49,68
			c0.34-1.04,0.51-2.14,0.51-3.24V49.49c0.6-0.46,1-1.17,1-1.99v-2c0-0.28,0.22-0.5,0.5-0.5c1.38,0,2.5-1.12,2.5-2.5v-1
			c0-0.28,0.22-0.5,0.5-0.5h4.78C24.11,42.04,24,43.1,24,44.16v16.71c0,2.39,0.25,4.78,0.74,7.12H14.49V68z"/>
	</g>
	<g>
		<g>
			<path class="st10" d="M19.28,39c-1.65,0-3.31-0.18-4.92-0.53l-0.75-0.16c-0.27-0.06-0.44-0.32-0.39-0.59
				c0.06-0.27,0.33-0.44,0.59-0.39l0.76,0.16c3.38,0.73,6.92,0.63,10.31-0.05c0.01,0,0.28-0.04,0.29-0.04c0.28,0,0.5,0.22,0.5,0.5
				s-0.22,0.5-0.5,0.5l-0.1,0.03C23.16,38.81,21.22,39,19.28,39z"/>
		</g>
	</g>
	<g>
		<g>
			<path class="st10" d="M13.5,48c-0.28,0-0.5-0.22-0.5-0.5v-6c0-0.28,0.22-0.5,0.5-0.5s0.5,0.22,0.5,0.5v6
				C14,47.78,13.78,48,13.5,48z"/>
		</g>
	</g>
</g>
<g>
	<g>
		<path class="st7" d="M40,69H29l0,0c0.66-1.32,1-2.77,1-4.24V31.61c0-2.35-0.7-4.65-2-6.61l0,0h12v40V69z"/>
	</g>
	<g>
		<g>
			<path class="st8" d="M30,28.5c0-0.28,0-0.5,0-0.5h3.5c0.28,0,0.5,0.22,0.5,0.5s0,0.5,0,0.5h-3.5C30.22,29,30,28.78,30,28.5z"/>
		</g>
	</g>
	<g>
		<path class="st8" d="M39,63L39,63V31.61c0-1.96,0.44-3.86,1.28-5.61H39h-4v42h4V63z"/>
	</g>
	<g>
		<path class="st9" d="M39,26h-1c-0.48,1.74-0.73,3.65-0.73,5.61V63v5H39v-5V31.61c0-1.96,0.44-3.86,1.28-5.61H39z"/>
	</g>
	<g>
		<path class="st7" d="M41,25.56v8.94c0,0.83-0.67,1.5-1.5,1.5l0,0c-0.83,0-1.5-0.67-1.5-1.5v-2c0-0.83-0.67-1.5-1.5-1.5l0,0
			c-0.83,0-1.5-0.67-1.5-1.5v-1c0-0.83-0.67-1.5-1.5-1.5h-3.75C28.79,27,28,26.21,28,25.25l0,0c0-1.14,1.07-1.98,2.18-1.7l0.31,0.08
			c1.01,0.25,2.04,0.38,3.08,0.38h1.88c1.04,0,2.07-0.13,3.08-0.38l0,0C39.78,23.31,41,24.26,41,25.56z"/>
		<path class="st2" d="M40.31,24.06c0.42,0.36,0.69,0.89,0.69,1.5V25C41,24.56,40.71,24.19,40.31,24.06z"/>
		<path class="st2" d="M40.85,23.2c-0.73-0.57-1.67-0.77-2.58-0.55c-0.74,0.19-1.51,0.28-2.27,0.31V21c0-0.55-0.45-1-1-1
			s-1,0.45-1,1v2h-0.44c-0.96,0-1.91-0.12-2.83-0.35l-0.3-0.08c-0.83-0.21-1.69-0.02-2.36,0.5C27.39,23.6,27,24.39,27,25.25
			c0,0.94,0.48,1.77,1.2,2.27c0.52,1.29,0.8,2.67,0.8,4.09v33.16c0,1.31-0.31,2.62-0.89,3.79c-0.15,0.31-0.14,0.68,0.04,0.97
			S28.65,70,29,70h11c0.55,0,1-0.45,1-1V36.49c0.6-0.46,1-1.17,1-1.99v-8.94C42,24.63,41.58,23.77,40.85,23.2z M39,68h-8.51
			c0.34-1.04,0.51-2.14,0.51-3.24V31.61c0-1.23-0.19-2.44-0.53-3.61h3.03c0.28,0,0.5,0.22,0.5,0.5v1c0,1.38,1.12,2.5,2.5,2.5
			c0.28,0,0.5,0.22,0.5,0.5v2c0,1.21,0.86,2.22,2,2.45V68z M40,34.5c0,0.28-0.22,0.5-0.5,0.5S39,34.78,39,34.5v-2
			c0-1.38-1.12-2.5-2.5-2.5c-0.28,0-0.5-0.22-0.5-0.5v-1c0-1.38-1.12-2.5-2.5-2.5h-3.75C29.34,26,29,25.66,29,25.25
			c0-0.23,0.11-0.45,0.29-0.59c0.08-0.07,0.24-0.16,0.46-0.16c0.06,0,0.12,0.01,0.19,0.02l0.3,0.08c1.08,0.27,2.2,0.41,3.32,0.41
			h1.88c1.12,0,2.24-0.14,3.32-0.41c0.3-0.08,0.62-0.01,0.86,0.18S40,25.26,40,25.57C40,25.57,40,34.5,40,34.5z"/>
	</g>
	<g>
		<g>
			<path class="st10" d="M35.44,26h-1.88c-1.2,0-2.4-0.15-3.56-0.44c-0.27-0.07-0.43-0.34-0.36-0.61s0.34-0.43,0.61-0.36
				c1.08,0.27,2.2,0.41,3.32,0.41h1.88c1.12,0,2.24-0.14,3.32-0.41c0.26-0.07,0.54,0.1,0.61,0.36c0.07,0.27-0.1,0.54-0.36,0.61
				C37.84,25.85,36.64,26,35.44,26z"/>
		</g>
	</g>
	<g>
		<g>
			<path class="st8" d="M39.5,35c-0.28,0-0.5-0.22-0.5-0.5v-6c0-0.28,0.22-0.5,0.5-0.5s0.5,0.22,0.5,0.5v6
				C40,34.78,39.78,35,39.5,35z"/>
		</g>
	</g>
	<g>
		<path class="st11" d="M32.4,19.53C32.91,18.62,33.88,18,35,18c1.15,0,2.14,0.65,2.64,1.6c0.82-0.79,1.36-2,1.36-3.6c0-3-4-11-4-11
			s-4,8-4,11C31,17.55,31.58,18.74,32.4,19.53z"/>
	</g>
	<g>
		<path class="st10" d="M33.82,18.57c0.23-0.41,0.67-0.69,1.18-0.69c0.52,0,0.97,0.3,1.19,0.73c0.37-0.36,0.61-0.9,0.61-1.63
			C36.81,15.62,35,12,35,12s-1.81,3.62-1.81,4.97C33.19,17.68,33.45,18.21,33.82,18.57z"/>
	</g>
	<g>
		<path class="st2" d="M37.64,20.6c-0.05,0-0.11,0-0.16-0.01c-0.31-0.05-0.58-0.24-0.73-0.52C36.41,19.41,35.73,19,35,19
			c-0.72,0-1.37,0.38-1.73,1.03c-0.15,0.27-0.42,0.45-0.73,0.5c-0.31,0.04-0.62-0.06-0.84-0.27C30.6,19.19,30,17.68,30,16
			c0-3.12,3.67-11.47,4.09-12.41C34.25,3.23,34.6,3,35,3s0.75,0.23,0.91,0.59C36.33,4.53,40,12.88,40,16c0,2.25-0.91,3.59-1.67,4.33
			C38.15,20.51,37.9,20.6,37.64,20.6z M35,17c0.97,0,1.89,0.35,2.6,0.97C37.86,17.42,38,16.75,38,16c0-1.79-1.73-6.37-3-9.45
			c-1.27,3.08-3,7.67-3,9.45c0,0.82,0.19,1.45,0.44,1.94C33.15,17.34,34.05,17,35,17z"/>
	</g>
</g>
<g>
	<g>
		<path class="st7" d="M58,69H44l0,0c0.66-1.32,1-2.77,1-4.24V50.61c0-2.35-0.7-4.65-2-6.61l0,0h14v7v15L58,69z"/>
	</g>
	<g>
		<path class="st8" d="M58,68l-1-5V50.61c0-1.96,0.44-3.86,1.28-5.61H57h-6v23h6H58z"/>
	</g>
	<g>
		<path class="st9" d="M57,50.61c0-1.96,0.44-3.86,1.28-5.61H57h-2c-0.46,1.74-0.7,3.65-0.7,5.61v7.62c0,3.18,0.17,6.36,0.52,9.53
			L54.85,68H57h1l-1-5V50.61z"/>
	</g>
	<g>
		<g>
			<path class="st8" d="M45,46l4.5,1c0.28,0,0.5,0.22,0.5,0.5s0,1.5,0,1.5l-3.04-0.61C45.82,48.16,45,47.16,45,46L45,46z"/>
		</g>
	</g>
	<g>
		<path class="st7" d="M59,44.2L59,44.2c0,1-0.81,1.8-1.8,1.8H57c-1.66,0-3,1.34-3,3v2.5c0,0.83-0.67,1.5-1.5,1.5l0,0
			c-0.83,0-1.5-0.67-1.5-1.5v-3.18c0-0.76-0.56-1.39-1.31-1.49l-5.02-0.63C43.71,46.09,43,45.28,43,44.32l0,0
			c0-1.2,1.1-2.1,2.28-1.87l0.97,0.19C47.41,42.88,48.6,43,49.79,43h2.3c1.27,0,2.54-0.13,3.79-0.38l0.97-0.19
			C57.96,42.21,59,43.06,59,44.2z"/>
		<path class="st2" d="M58.34,46.75C59.31,46.32,60,45.34,60,44.2c0-0.84-0.37-1.63-1.03-2.17c-0.65-0.53-1.5-0.75-2.33-0.58
			l-0.97,0.19C54.5,41.88,53.29,42,52.09,42H52v-2c0-0.55-0.45-1-1-1s-1,0.45-1,1v2h-0.21c-1.12,0-2.25-0.11-3.35-0.33l-0.97-0.19
			c-0.86-0.17-1.73,0.05-2.41,0.6c-0.46,0.38-0.77,0.88-0.94,1.44l-0.01,0.01c-0.1,0.19-0.13,0.41-0.1,0.62
			c0,0.06-0.02,0.11-0.02,0.17c0,0.99,0.51,1.87,1.28,2.39c0.47,1.24,0.72,2.55,0.72,3.89v14.16c0,1.31-0.31,2.62-0.89,3.79
			c-0.16,0.31-0.14,0.68,0.04,0.97C43.33,69.82,43.65,70,44,70h14c0.32,0,0.62-0.15,0.81-0.42c0.19-0.26,0.24-0.6,0.14-0.9
			C58.32,66.79,58,64.83,58,62.84V50.16C58,49.01,58.12,47.88,58.34,46.75z M44.33,43.62c0.1-0.08,0.3-0.21,0.57-0.21
			c0.06,0,0.12,0.01,0.18,0.02l0.97,0.19c1.23,0.25,2.49,0.37,3.74,0.37h2.3c1.33,0,2.67-0.13,3.99-0.39l0.97-0.19
			c0.33-0.07,0.56,0.08,0.67,0.17c0.1,0.09,0.28,0.29,0.28,0.62c0,0.44-0.36,0.8-0.8,0.8H57c-2.21,0-4,1.79-4,4v2.5
			c0,0.28-0.22,0.5-0.5,0.5S52,51.78,52,51.5v-3.18c0-1.26-0.94-2.32-2.19-2.48l-5.02-0.63c-0.45-0.06-0.79-0.44-0.79-0.9
			C44,43.95,44.21,43.72,44.33,43.62z M45.49,68c0.34-1.04,0.51-2.14,0.51-3.24V50.61c0-1.11-0.14-2.21-0.42-3.28l3.99,0.5
			c0.25,0.03,0.44,0.24,0.44,0.5v3.18c0,1.38,1.12,2.5,2.5,2.5s2.5-1.12,2.5-2.5V49c0-0.84,0.52-1.56,1.25-1.85
			c-0.15,1-0.25,2-0.25,3.01v12.68c0,1.75,0.22,3.48,0.66,5.16H45.49z"/>
	</g>
	<g>
		<g>
			<path class="st10" d="M52.09,45h-2.3c-1.32,0-2.64-0.13-3.94-0.39l-1.05-0.2c-0.27-0.05-0.45-0.31-0.4-0.59
				c0.05-0.27,0.31-0.45,0.59-0.4l1.05,0.2c1.23,0.25,2.49,0.37,3.75,0.37h2.3c1.34,0,2.68-0.13,3.98-0.39
				c1.03-0.2,1.03-0.2,1.08-0.2c0.28,0,0.5,0.22,0.5,0.5s-0.22,0.5-0.5,0.5c0.02,0-0.89,0.18-0.89,0.18
				C54.9,44.86,53.49,45,52.09,45z"/>
		</g>
	</g>
	<g>
		<path class="st11" d="M48.4,38.53C48.91,37.62,49.88,37,51,37c1.15,0,2.14,0.65,2.64,1.6c0.82-0.79,1.36-2,1.36-3.6c0-3-4-11-4-11
			s-4,8-4,11C47,36.55,47.58,37.74,48.4,38.53z"/>
	</g>
	<g>
		<path class="st10" d="M49.82,37.57c0.23-0.41,0.67-0.69,1.18-0.69c0.52,0,0.97,0.3,1.19,0.73c0.37-0.36,0.61-0.9,0.61-1.63
			C52.81,34.62,51,31,51,31s-1.81,3.62-1.81,4.97C49.19,36.68,49.45,37.21,49.82,37.57z"/>
	</g>
	<g>
		<path class="st2" d="M53.64,39.6c-0.05,0-0.11,0-0.16-0.01c-0.31-0.05-0.58-0.24-0.73-0.52C52.41,38.41,51.73,38,51,38
			c-0.71,0-1.37,0.39-1.73,1.03c-0.15,0.27-0.42,0.45-0.73,0.5s-0.62-0.06-0.84-0.27C46.6,38.18,46,36.67,46,35
			c0-3.12,3.67-11.47,4.09-12.41C50.25,22.23,50.6,22,51,22s0.75,0.23,0.91,0.59C52.33,23.53,56,31.88,56,35
			c0,2.25-0.91,3.59-1.67,4.33C54.15,39.51,53.9,39.6,53.64,39.6z M51,36c0.97,0,1.89,0.35,2.6,0.97C53.86,36.42,54,35.75,54,35
			c0-1.79-1.73-6.37-3-9.45c-1.27,3.08-3,7.67-3,9.45c0,0.82,0.19,1.45,0.44,1.94C49.15,36.34,50.05,36,51,36z"/>
	</g>
</g>
<g>
	<path class="st2" d="M68,70H2c-0.55,0-1-0.45-1-1s0.45-1,1-1h66c0.55,0,1,0.45,1,1S68.55,70,68,70z"/>
</g>
<g>
	<path class="st2" d="M20.81,56.66c-1.38,0-2.5-1.12-2.5-2.5v-1.68c0-0.25-0.19-0.46-0.44-0.5c-0.55-0.07-0.94-0.57-0.87-1.12
		s0.57-0.93,1.12-0.87c1.25,0.16,2.19,1.22,2.19,2.48v1.68c0,0.28,0.22,0.5,0.5,0.5s0.5-0.22,0.5-0.5v-1c0-0.55,0.45-1,1-1
		s1,0.45,1,1v1C23.31,55.54,22.19,56.66,20.81,56.66z"/>
</g>
<path class="st2" d="M10.01,59.1c0-0.03-0.01-0.07-0.01-0.1c0-1.65,1.35-3,3-3c0.35,0,0.69,0.07,1,0.18V54.1
	c-0.32-0.07-0.66-0.1-1-0.1c-2.76,0-5,2.24-5,5c0,0.32,0.04,0.63,0.09,0.93C8.66,59.52,9.31,59.24,10.01,59.1z"/>
<path class="st2" d="M57,56.18c0.31-0.11,0.65-0.18,1-0.18c1.65,0,3,1.35,3,3c0,0.14-0.02,0.27-0.04,0.41
	c0.67,0.28,1.26,0.71,1.74,1.24C62.88,60.13,63,59.58,63,59c0-2.76-2.24-5-5-5c-0.34,0-0.68,0.04-1,0.1V56.18z"/>
<g>
	<g>
		<g>
			<path class="st0" d="M59,69c3.11,0,5.56-2.84,4.89-6.07c-0.4-1.94-2.01-3.49-3.96-3.84c-1.44-0.26-2.78,0.1-3.82,0.86
				c-0.64,0.47-1.54,0.49-2.18,0.02C53.1,59.36,52.1,59,51,59s-2.1,0.36-2.92,0.96c-0.63,0.46-1.52,0.46-2.15,0
				C45.1,59.36,44.1,59,43,59s-2.1,0.36-2.92,0.96c-0.63,0.46-1.52,0.46-2.15,0C37.1,59.36,36.1,59,35,59s-2.1,0.36-2.92,0.96
				c-0.63,0.46-1.52,0.46-2.15,0C29.1,59.36,28.1,59,27,59s-2.1,0.36-2.92,0.96c-0.63,0.46-1.52,0.46-2.15,0
				C21.1,59.36,20.1,59,19,59s-2.1,0.36-2.92,0.96c-0.64,0.47-1.54,0.45-2.18-0.02c-1.04-0.75-2.38-1.12-3.82-0.86
				c-1.95,0.35-3.56,1.9-3.96,3.84C5.44,66.16,7.89,69,11,69H59z"/>
		</g>
		<g>
			<path class="st3" d="M60.27,60.23c0.14,0.4,0.23,0.83,0.23,1.27c0,0.02,0,0.04,0,0.05C60.49,62.35,59.8,63,59,63l0,0
				c-0.83,0-1.63,0.16-2.31,0.47c-1,0.45-2.38,0.46-3.36,0.01c-1.37-0.63-3.3-0.63-4.66,0c-0.01,0-0.02,0.01-0.03,0.01
				c-1.26,0.56-2.71-0.05-3.47-1.21c-0.7-1.07-1.79-1.86-3.08-2.15c-0.51,0.12-1,0.32-1.43,0.64c-0.98,0.72-2.35,0.72-3.34,0
				c-1.37-1-3.3-1-4.66,0c-0.8,0.58-1.85,0.69-2.74,0.32c-0.69,0.54-1.23,1.26-1.56,2.08c-1.22-0.27-2.63-0.17-3.69,0.32
				c-0.98,0.45-2.35,0.45-3.34,0c-1.37-0.63-3.3-0.63-4.66,0c-0.98,0.45-2.36,0.44-3.36-0.01C12.63,63.16,11.83,63,10.99,63
				c-0.25,0-0.49,0.01-0.74,0.04c-0.02,0-0.04,0.01-0.07,0.01c-2.08,0.26-2.92,2.97-1.31,4.31c0.06,0.04,0.1,0.07,0.13,0.09
				C9.66,67.81,10.42,68,11.19,68h17.83h7.95h0.05h7.95H58.8c2.17,0,4.09-1.64,4.2-3.8C63.08,62.35,61.91,60.78,60.27,60.23z"/>
		</g>
		<g>
			<path class="st1" d="M62.96,63.45C62.72,65.49,60.88,67,58.8,67H48.4c-1.69,0-3.09-1.11-3.76-2.66c0-0.01,0-0.01-0.01-0.02
				c-0.71-1.53-2.35-2.53-4.19-2.28c-1.27,0.17-2.37,1.01-2.97,2.15c-0.54,1.03-0.57,1.97-0.34,2.82h-0.11h-0.05h-7.95H13.29
				c-0.81,0-1.58,0.37-2.1,1h17.83h7.95h0.05h0.53h6.89h0.53h13.52c1.13,0,2.26-0.34,3.15-1.05C63.12,65.78,63.1,64.46,62.96,63.45z
				"/>
		</g>
	</g>
	<path class="st2" d="M59,70H11c-1.81,0-3.51-0.81-4.66-2.21c-1.15-1.41-1.59-3.25-1.21-5.06c0.49-2.34,2.4-4.2,4.77-4.62
		c1.63-0.29,3.26,0.07,4.59,1.03c0.3,0.22,0.72,0.23,1,0.02c2.05-1.51,4.97-1.51,7.03,0c0.28,0.21,0.69,0.21,0.97,0
		c2.05-1.51,4.97-1.51,7.03,0c0.28,0.21,0.69,0.21,0.97,0c2.06-1.51,4.97-1.51,7.03,0c0.28,0.2,0.7,0.2,0.97,0
		c2.05-1.51,4.97-1.51,7.03,0c0.28,0.2,0.7,0.2,0.97,0c2.05-1.51,4.97-1.51,7.03,0c0.28,0.21,0.7,0.2,1-0.02
		c1.33-0.96,2.96-1.32,4.59-1.03c2.36,0.43,4.28,2.29,4.76,4.62c0.38,1.81-0.07,3.65-1.21,5.06C62.51,69.19,60.81,70,59,70z
		 M10.99,60c-0.25,0-0.49,0.02-0.74,0.07c-1.57,0.28-2.84,1.51-3.16,3.06c-0.26,1.23,0.03,2.44,0.81,3.39C8.66,67.46,9.79,68,11,68
		h48c1.21,0,2.34-0.54,3.1-1.48c0.78-0.95,1.06-2.16,0.8-3.39c-0.32-1.55-1.59-2.78-3.16-3.06c-1.09-0.2-2.18,0.04-3.06,0.68
		c-1,0.72-2.38,0.73-3.36,0.01c-1.37-1-3.3-1-4.66,0c-0.98,0.72-2.35,0.72-3.34,0c-1.37-1-3.3-1-4.66,0c-0.98,0.72-2.35,0.72-3.34,0
		c-1.36-1-3.3-1-4.66,0c-0.98,0.72-2.35,0.72-3.34,0c-1.37-1-3.3-1-4.66,0c-0.98,0.72-2.35,0.72-3.34,0c-1.37-1-3.3-1-4.66,0
		c-0.98,0.71-2.36,0.71-3.36-0.01C12.63,60.26,11.83,60,10.99,60z"/>
</g>
<g>
	<g>
		<circle class="st12" cx="39" cy="65" r="4"/>
	</g>
	<g>
		<circle class="st12" cx="31" cy="65" r="4"/>
	</g>
	<g>
		<circle class="st12" cx="35" cy="57" r="4"/>
	</g>
	<g>
		<path class="st13" d="M41.88,64.41c-0.14-0.47-0.78-0.57-1.04-0.14c-0.29,0.48-0.68,0.97-1.14,1.43s-0.95,0.84-1.43,1.14
			c-0.42,0.26-0.33,0.89,0.14,1.04c0.95,0.29,2.02,0.06,2.77-0.69C41.94,66.43,42.17,65.36,41.88,64.41z"/>
	</g>
	<g>
		<path class="st13" d="M33.88,64.41c-0.14-0.47-0.78-0.57-1.04-0.14c-0.29,0.48-0.68,0.97-1.14,1.43s-0.95,0.84-1.43,1.14
			c-0.42,0.26-0.33,0.89,0.14,1.04c0.95,0.29,2.02,0.06,2.77-0.69C33.94,66.43,34.17,65.36,33.88,64.41z"/>
	</g>
	<g>
		<path class="st13" d="M37.88,56.41c-0.14-0.47-0.78-0.57-1.04-0.14c-0.29,0.48-0.68,0.97-1.14,1.43s-0.95,0.84-1.43,1.14
			c-0.42,0.26-0.33,0.89,0.14,1.04c0.95,0.29,2.02,0.06,2.77-0.69C37.94,58.43,38.17,57.36,37.88,56.41z"/>
	</g>
	<g>
		<circle class="st14" cx="30.5" cy="63.5" r="0.5"/>
	</g>
	<g>
		<circle class="st14" cx="34.5" cy="55.5" r="0.5"/>
	</g>
	<g>
		<circle class="st14" cx="38.5" cy="63.5" r="0.5"/>
	</g>
	<g>
		<path class="st2" d="M39,70c-2.76,0-5-2.24-5-5s2.24-5,5-5s5,2.24,5,5C44,67.76,41.76,70,39,70z M39,62c-1.65,0-3,1.35-3,3
			s1.35,3,3,3s3-1.35,3-3S40.65,62,39,62z"/>
	</g>
	<g>
		<path class="st2" d="M31,70c-2.76,0-5-2.24-5-5s2.24-5,5-5s5,2.24,5,5C36,67.76,33.76,70,31,70z M31,62c-1.65,0-3,1.35-3,3
			s1.35,3,3,3c1.65,0,3-1.35,3-3S32.65,62,31,62z"/>
	</g>
	<g>
		<path class="st2" d="M35,62c-2.76,0-5-2.24-5-5s2.24-5,5-5s5,2.24,5,5S37.76,62,35,62z M35,54c-1.65,0-3,1.35-3,3s1.35,3,3,3
			s3-1.35,3-3S36.65,54,35,54z"/>
	</g>
</g>
</svg>
