<?xml version="1.0" encoding="utf-8"?>
<!-- Generator: Adobe Illustrator 23.0.1, SVG Export Plug-In . SVG Version: 6.00 Build 0)  -->
<svg version="1.1" id="Layer_1" xmlns="http://www.w3.org/2000/svg" xmlns:xlink="http://www.w3.org/1999/xlink" x="0px" y="0px"
	 viewBox="0 0 94 94" style="enable-background:new 0 0 94 94;" xml:space="preserve">
<style type="text/css">
	.st0{fill:#DCECF9;}
	.st1{fill:#C4E1F6;}
	.st2{fill:#ACD6F2;}
	.st3{fill:#C97629;}
	.st4{fill:#A35425;}
	.st5{fill:#7F4122;}
	.st6{fill:#310E31;}
	.st7{fill:#FFFFFF;}
	.st8{fill:#D5E3EF;}
	.st9{fill:#B06328;}
	.st10{fill:#EF3B3D;}
	.st11{fill:#DA8C36;}
	.st12{fill:#9AC75E;}
	.st13{fill:#D2202C;}
	.st14{fill:#F16046;}
	.st15{fill:#F6B545;}
</style>
<g>
	<g>
		<path class="st0" d="M35,93h12h6l-6.68-15.32c0.91-0.16,1.81-0.38,2.68-0.68l-7.64-14.33C42.25,62.5,43.14,62.29,44,62L32.43,37.9
			C32.17,37.35,31.61,37,31,37s-1.17,0.35-1.43,0.9L18,62c0.86,0.29,1.75,0.5,2.64,0.67L13,77c0.88,0.29,1.78,0.51,2.68,0.68L9,93
			h6.16H27H35z"/>
	</g>
	<g>
		<path class="st0" d="M55.36,93h13.09H75l-7.29-16.69c0.99-0.18,1.97-0.42,2.93-0.74L62.3,59.96c0.98-0.18,1.94-0.41,2.88-0.73
			L52.56,32.98C52.27,32.38,51.67,32,51,32s-1.27,0.38-1.56,0.98L36.82,59.23c0.94,0.31,1.91,0.55,2.88,0.73l-8.34,15.61
			c0.96,0.32,1.94,0.56,2.93,0.74L27,93h6.72h12.91H55.36z"/>
	</g>
	<g>
		<path class="st1" d="M44,93h10.68H59l-6.36-12.66c0.91-0.16,1.81-0.38,2.68-0.68L49,68c0.89-0.16,1.78-0.38,2.64-0.67L41.43,47.9
			C41.17,47.35,40.61,47,40,47s-1.17,0.35-1.43,0.9L28.36,67.33c0.86,0.29,1.75,0.5,2.64,0.67l-6.33,11.67
			c0.88,0.29,1.78,0.51,2.68,0.68L21,93h4.48H36H44z"/>
	</g>
	<g>
		<path class="st2" d="M67,93h12h6l-6.68-15.32c0.91-0.16,1.81-0.38,2.68-0.68l-7.64-14.33C74.25,62.5,75.14,62.29,76,62L64.43,37.9
			C64.17,37.35,63.61,37,63,37s-1.17,0.35-1.43,0.9L50,62c0.86,0.29,1.75,0.5,2.64,0.67L45,77c0.88,0.29,1.78,0.51,2.68,0.68L41,93
			h6.16H59H67z"/>
	</g>
</g>
<path class="st3" d="M30,61c0.25,0,0.52-0.01,0.78-0.03C32.25,59.16,34.49,58,37,58H27C27,59.66,28.34,61,30,61z"/>
<g>
	<path class="st4" d="M41.62,79.34l2-5.34H38c0,0-1.09,1.89-3,3.74V78l6,15h4l-3.44-10.32C41.2,81.59,41.22,80.41,41.62,79.34z"/>
	<path class="st5" d="M41.62,79.34l2-5.34H38c0,0-1.09,1.89-3,3.74V78l0.8,2h0.64c1.39,0,2.55,0.95,2.98,2.27
		c0,0.01,0,0.01,0.01,0.02L43,93h2l-3.44-10.32C41.2,81.59,41.22,80.41,41.62,79.34z"/>
	<path class="st6" d="M42.51,82.36c-0.29-0.87-0.27-1.82,0.05-2.67L44.69,74h-2.14l-1.87,4.99c-0.48,1.28-0.51,2.7-0.07,4l3,9h-1.94
		l-5.75-14.37c-0.08-0.19-0.22-0.34-0.38-0.44c-0.42,0.45-0.89,0.9-1.41,1.34l5.94,14.84C40.22,93.75,40.59,94,41,94h4
		c0.32,0,0.62-0.15,0.81-0.42c0.19-0.26,0.24-0.6,0.14-0.9L42.51,82.36z"/>
</g>
<g>
	<g>
		<path class="st7" d="M23.92,93c0.05-0.33,0.08-0.66,0.08-1c0-3.87-3.13-7-7-7s-7,3.13-7,7c0,0.34,0.03,0.67,0.08,1H23.92z"/>
	</g>
	<g>
		<path class="st6" d="M23.92,94H10.08c-0.5,0-0.92-0.36-0.99-0.85C9.03,92.72,9,92.36,9,92c0-4.41,3.59-8,8-8s8,3.59,8,8
			c0,0.36-0.03,0.72-0.09,1.15C24.84,93.64,24.41,94,23.92,94z M11,92h12c0-3.31-2.69-6-6-6S11,88.69,11,92z"/>
	</g>
	<g>
		<path class="st8" d="M19.92,90.99c-0.06,0.35-0.15,0.68-0.27,1.01h3.34c0-1.72-0.71-3.27-1.87-4.36
			c-0.59-0.55-1.52,0.05-1.32,0.83C20.01,89.26,20.06,90.11,19.92,90.99z"/>
	</g>
</g>
<g>
	<g>
		<path class="st7" d="M56,89c0-5.52-4.48-10-10-10c-4.84,0-8.88,3.44-9.8,8.01c-0.07,0-0.13-0.01-0.2-0.01c-3.31,0-6,2.69-6,6
			h25.16C55.7,91.77,56,90.42,56,89z"/>
	</g>
	<g>
		<path class="st8" d="M52.84,82.8c-0.7-0.88-2.09-0.28-1.94,0.83c0.12,0.89,0.13,1.81,0,2.76c-0.04,0.28-0.09,0.55-0.15,0.83
			C50.25,89.45,48.17,91,45.87,91h-3.32c-1.31,0-2.61-0.54-3.4-1.59c-0.19-0.26-0.41-0.5-0.64-0.73c-0.48-0.46-1.28-0.08-1.2,0.58
			c0.08,0.68,0.06,1.39-0.11,2.12C37.14,91.59,37.07,91.8,37,92h2h1.27h7.86H51h3.54c0.13-0.43,0.25-0.86,0.32-1.31
			C55.35,87.7,54.51,84.9,52.84,82.8z"/>
	</g>
	<g>
		<path class="st6" d="M55.16,94H30c-0.55,0-1-0.45-1-1c0-3.66,2.82-6.67,6.41-6.98C36.72,81.33,41.06,78,46,78
			c6.07,0,11,4.93,11,11c0,1.52-0.31,3-0.92,4.4C55.92,93.76,55.56,94,55.16,94z M31.1,92h23.38c0.34-0.96,0.52-1.97,0.52-3
			c0-4.96-4.04-9-9-9c-4.27,0-7.98,3.03-8.82,7.21c-0.1,0.48-0.52,0.82-1.01,0.8c-0.01,0-0.11,0-0.13-0.01
			C33.59,88,31.57,89.72,31.1,92z"/>
	</g>
</g>
<g>
	<path class="st4" d="M58.46,76.09L60,93h3V67.99C61.05,70.44,59.52,73.18,58.46,76.09z"/>
	<path class="st5" d="M58.46,76.09l0.34,3.78c0.14-0.25,0.28-0.49,0.43-0.74C59.73,78.3,61,78.65,61,79.61V93h2V73.93v-5.94
		C61.05,70.44,59.52,73.18,58.46,76.09z"/>
	<path class="st6" d="M63.6,67.23c-0.57,0.67-1.09,1.37-1.6,2.08V92h-1.09l-1.63-17.93c-0.66,1.45-1.2,2.95-1.6,4.5L59,93.09
		c0.05,0.51,0.48,0.91,1,0.91h3c0.55,0,1-0.45,1-1V67c0-0.08-0.03-0.15-0.05-0.23C63.83,66.93,63.72,67.08,63.6,67.23z"/>
</g>
<g>
	<path class="st3" d="M38,74h12.18c1.07,0,1.95,0.84,2,1.9L53,93h3l0.91-10.02c0.53-5.82,2.91-11.29,6.69-15.75
		c2.61-3.08,4.08-6.94,3.99-11.23c-0.03-1.36-0.22-2.76-0.59-4.2c-1.12-4.32-3.28-8.43-7-11.8h-6l-7,3v0c0,1.66,1.34,3,3,3h2
		c3.38,0,6.1,2.79,6,6.18C57.9,55.47,55.03,58,51.75,58L37,58c-4.42,0-8,3.58-8,8l0,4c0,3.87-3.13,7-7,7v0v16h4l0.77-8.47
		c0.14-1.54,1.16-2.87,2.62-3.4l1.04-0.38C35.07,79.06,38,74,38,74z"/>
</g>
<g>
	<g>
		<path class="st9" d="M39,70L39,70c-1.67,1.12-3.17,2.47-4.44,4.03c-1.3,1.61-3.43,3.74-6.14,4.73l-1.04,0.38
			c-1.46,0.53-2.48,1.85-2.62,3.4L24,91h-2v2h4l0.77-8.47c0.14-1.54,1.16-2.87,2.62-3.4l1.04-0.38C35.07,79.06,38,74,38,74L39,70z"
			/>
	</g>
	<g>
		<path class="st9" d="M52,74H39v-5h0c3.28,1.31,6.84,1.77,10.34,1.33L52,70V74z"/>
	</g>
</g>
<g>
	<path class="st9" d="M63.52,67.32c0.28-0.32,0.53-0.65,0.78-0.99c2.16-2.92,3.36-6.44,3.29-10.33c-0.03-1.36-0.22-2.76-0.59-4.2
		c-1.12-4.32-3.28-8.43-7-11.8h-0.07c2.55,2.94,4.16,6.3,5.07,9.8c0.37,1.44,0.56,2.84,0.59,4.2c0.03,1.6-0.15,3.14-0.53,4.6
		c-0.8,3.07-5.09,3.54-6.49,0.7c-0.66-1.34-1.11-2.78-1.32-4.3l-0.13,0.06c-0.69,1.1-1.73,1.96-2.96,2.46
		c0.46,2.74,1.58,5.3,3.23,7.46c1.28,1.68,1.48,3.92,0.52,5.79c-1.63,3.16-2.67,6.61-2.99,10.2L54.49,93H56l0.91-10.02
		c0.45-4.98,2.27-9.7,5.15-13.75c0.1-0.14,0.2-0.27,0.3-0.41C62.67,68.4,63.18,67.71,63.52,67.32z"/>
</g>
<g>
	<circle class="st10" cx="60" cy="9" r="1"/>
</g>
<g>
	<circle class="st10" cx="72" cy="31" r="1"/>
</g>
<g>
	<circle class="st10" cx="42" cy="30" r="1"/>
</g>
<g>
	<circle class="st10" cx="70" cy="2" r="1"/>
</g>
<g>
	<circle class="st10" cx="46" cy="25" r="1"/>
</g>
<g>
	<circle class="st10" cx="79" cy="24" r="1"/>
</g>
<g>
	<circle class="st10" cx="38" cy="7" r="1"/>
</g>
<g>
	<path class="st6" d="M86,94H8c-0.55,0-1-0.45-1-1s0.45-1,1-1h78c0.55,0,1,0.45,1,1S86.55,94,86,94z"/>
</g>
<g>
	<path class="st9" d="M54.45,45h-1.85h-4.83c0.51,0.61,1.24,1,2.05,1h1.85c3.12,0,5.64,2.79,5.54,6.18
		c-0.02,0.58-0.11,1.15-0.28,1.67c-0.34,1.07,0.97,1.87,1.66,1.03c0.83-1,1.35-2.28,1.39-3.7C60.09,47.79,57.57,45,54.45,45z"/>
</g>
<g>
	<g>
		<path class="st11" d="M28.41,73v-0.18C27.32,75.28,24.86,77,22,77v0v2.97C25.59,79.67,28.41,76.67,28.41,73z"/>
	</g>
	<g>
		<path class="st11" d="M53,57.86C52.59,57.94,52.18,58,51.75,58H37c-4.41,0-7.99,3.57-8,7.98c1.19-2.92,4.06-4.98,7.41-4.98h13.45
			C51.59,61,53,59.59,53,57.86L53,57.86z"/>
	</g>
</g>
<path class="st6" d="M78,8c-0.55,0-1,0.45-1,1v3.3c0,0.7-0.37,1.36-0.97,1.72L74,15.23V11c0-0.55-0.45-1-1-1s-1,0.45-1,1v10.23
	l-2.03-1.22C69.37,19.66,69,19,69,18.3V5c0-0.55-0.45-1-1-1s-1,0.45-1,1v7.23l-2.03-1.22C64.37,10.66,64,10,64,9.3V7
	c0-0.55-0.45-1-1-1s-1,0.45-1,1v2.3c0,1.4,0.74,2.71,1.94,3.43l2.09,1.25C66.63,14.34,67,15,67,15.7v2.6c0,1.4,0.74,2.71,1.94,3.43
	l2.09,1.25C71.63,23.34,72,24,72,24.7v0.18c0,0.35-0.18,0.67-0.48,0.85l-5.7,3.51c-0.79,0.48-1.8,0.37-2.46-0.29l-1.78-1.78
	C61.21,26.79,61,26.29,61,25.76V24.5c0-0.63,0.3-1.22,0.8-1.6l1.6-1.2c1-0.75,1.6-1.95,1.6-3.2V16c0-0.55-0.45-1-1-1s-1,0.45-1,1
	v2.5c0,0.63-0.3,1.22-0.8,1.6L61,21v-1c0-0.55-0.45-1-1-1s-1,0.45-1,1v5.76c0,1.07,0.42,2.07,1.17,2.83l1.78,1.78
	c0.28,0.28,0.61,0.5,0.94,0.68l-1.51,0.93c-1.47,0.9-2.38,2.54-2.38,4.26V40c0,0.55,0.45,1,1,1s1-0.45,1-1v-3.76
	c0-1.03,0.55-2.01,1.43-2.56c0,0,4.72-2.9,4.72-2.9l5.43-3.34c0.89-0.55,1.43-1.51,1.43-2.56V18.7c0-0.7,0.37-1.36,0.97-1.72
	l2.09-1.25C78.26,15.01,79,13.7,79,12.3V9C79,8.45,78.55,8,78,8z"/>
<path class="st6" d="M36,8c0.55,0,1,0.45,1,1v3.3c0,0.7,0.37,1.36,0.97,1.72L40,15.23V11c0-0.55,0.45-1,1-1s1,0.45,1,1v10.23
	l2.03-1.22C44.63,19.66,45,19,45,18.3V5c0-0.55,0.45-1,1-1s1,0.45,1,1v7.23l2.03-1.22C49.63,10.66,50,10,50,9.3V7c0-0.55,0.45-1,1-1
	s1,0.45,1,1v2.3c0,1.4-0.74,2.71-1.94,3.43l-2.09,1.25C47.37,14.34,47,15,47,15.7v2.6c0,1.4-0.74,2.71-1.94,3.43l-2.09,1.25
	C42.37,23.34,42,24,42,24.7v0.18c0,0.35,0.18,0.67,0.48,0.85l5.7,3.51c0.79,0.48,1.8,0.37,2.46-0.29l1.78-1.78
	c0.38-0.38,0.59-0.88,0.59-1.41V24.5c0-0.63-0.3-1.22-0.8-1.6l-1.6-1.2c-1-0.75-1.6-1.95-1.6-3.2V16c0-0.55,0.45-1,1-1s1,0.45,1,1
	v2.5c0,0.63,0.3,1.22,0.8,1.6L53,21v-1c0-0.55,0.45-1,1-1s1,0.45,1,1v5.76c0,1.07-0.42,2.07-1.17,2.83l-1.78,1.78
	c-0.28,0.28-0.61,0.5-0.94,0.68l1.51,0.93c1.47,0.9,2.38,2.54,2.38,4.26V40c0,0.55-0.45,1-1,1s-1-0.45-1-1v-3.76
	c0-1.03-0.55-2.01-1.43-2.56c0,0-4.72-2.9-4.72-2.9l-5.43-3.34C40.53,26.89,40,25.93,40,24.88V18.7c0-0.7-0.37-1.36-0.97-1.72
	l-2.09-1.25C35.74,15.01,35,13.7,35,12.3V9C35,8.45,35.45,8,36,8z"/>
<g>
	<circle class="st6" cx="56.5" cy="42.5" r="0.5"/>
</g>
<g>
	<ellipse class="st12" cx="41.5" cy="4.5" rx="1.5" ry="4.5"/>
</g>
<g>
	<ellipse class="st12" cx="80.5" cy="19.5" rx="4.5" ry="1.5"/>
</g>
<g>
	<ellipse class="st12" cx="56" cy="6" rx="3" ry="1"/>
</g>
<g>
	<ellipse class="st12" cx="69.5" cy="36.5" rx="1.5" ry="4.5"/>
</g>
<g>
	<ellipse transform="matrix(0.7071 -0.7071 0.7071 0.7071 17.1386 53.3762)" class="st12" cx="73" cy="6" rx="4.24" ry="1.7"/>
</g>
<g>
	<ellipse transform="matrix(0.7071 -0.7071 0.7071 0.7071 -10.669 34.2426)" class="st12" cx="36" cy="30" rx="4.24" ry="1.7"/>
</g>
<g>
	<ellipse transform="matrix(0.7071 -0.7071 0.7071 0.7071 -0.8198 26.0208)" class="st12" cx="31" cy="14" rx="4.24" ry="1.7"/>
</g>
<g>
	<ellipse transform="matrix(0.7071 -0.7071 0.7071 0.7071 7.3812 45.8198)" class="st12" cx="59" cy="14" rx="1.7" ry="4.24"/>
</g>
<g>
	<ellipse transform="matrix(0.7071 -0.7071 0.7071 0.7071 1.6533 53.9914)" class="st12" cx="66" cy="25" rx="1.13" ry="2.83"/>
</g>
<g>
	<ellipse transform="matrix(0.7071 -0.7071 0.7071 0.7071 -11.8614 41.364)" class="st12" cx="44" cy="35" rx="2.83" ry="1.13"/>
</g>
<g>
	<ellipse transform="matrix(0.7071 -0.7071 0.7071 0.7071 12.5233 36.234)" class="st12" cx="50" cy="3" rx="2.83" ry="1.13"/>
</g>
<g>
	<ellipse transform="matrix(0.7071 -0.7071 0.7071 0.7071 -4.1041 48.0919)" class="st12" cx="56" cy="29" rx="2.83" ry="1.13"/>
</g>
<g>
	<ellipse transform="matrix(0.7071 -0.7071 0.7071 0.7071 1.6325 63.9411)" class="st12" cx="78" cy="30" rx="1.7" ry="4.24"/>
</g>
<g>
	<ellipse transform="matrix(0.7071 -0.7071 0.7071 0.7071 -5.7193 32.1924)" class="st12" cx="36" cy="23" rx="1.7" ry="4.24"/>
</g>
<g>
	<g>
		<path class="st7" d="M82.91,93c0-4.42-3.58-8-8-8c-2.75,0-5.17,1.39-6.61,3.5c-0.73-0.32-1.54-0.5-2.39-0.5
			c-2.97,0-5.43,2.16-5.91,5H82.91z"/>
		<path class="st6" d="M82.91,94H60c-0.29,0-0.57-0.13-0.76-0.35c-0.19-0.22-0.27-0.52-0.22-0.81c0.57-3.38,3.47-5.83,6.9-5.83
			c0.7,0,1.38,0.1,2.04,0.3c1.7-2.08,4.25-3.3,6.96-3.3c4.96,0,9,4.04,9,9C83.91,93.55,83.46,94,82.91,94z M61.33,92h20.51
			c-0.49-3.39-3.41-6-6.93-6c-2.31,0-4.48,1.14-5.79,3.06c-0.27,0.4-0.79,0.55-1.22,0.35C67.27,89.14,66.6,89,65.91,89
			C63.88,89,62.1,90.21,61.33,92z"/>
	</g>
	<g>
		<path class="st8" d="M81.81,91.86c-0.27-1.65-1.12-3.11-2.33-4.15c-0.47-0.05-0.95,0.37-0.81,0.92c0,0.02,0.01,0.03,0.01,0.05
			c0.3,1.18-0.61,2.32-1.83,2.32h-6.97c-0.08-0.1-0.16-0.21-0.24-0.3c-0.32-0.36-0.92-0.08-0.82,0.39c0.06,0.29,0.08,0.6,0.08,0.91
			h1.58h8.28h3.08C81.83,91.95,81.82,91.91,81.81,91.86z"/>
	</g>
</g>
<path class="st6" d="M67.97,51.55c-0.95-3.64-2.54-6.85-4.74-9.58C63.32,41.98,63.41,42,63.5,42c1.39,0,2.64-0.58,3.5-1.5
	c-0.86-0.92-2.11-1.5-3.5-1.5c0,0,0,0,0,0l0,0L60,39h-6c-0.14,0-0.27,0.03-0.39,0.08l-7,3C46.24,42.24,46,42.6,46,43
	c0,2.21,1.79,4,4,4h2c1.36,0,2.64,0.54,3.59,1.52c0.95,0.98,1.45,2.27,1.41,3.64C56.92,54.83,54.56,57,51.75,57H27
	c-0.55,0-1,0.45-1,1c0,1.86,1.29,3.42,3.02,3.86C28.37,63.1,28,64.51,28,66v4c0,3.31-2.69,6-6,6c-0.55,0-1,0.45-1,1v16
	c0,0.55,0.45,1,1,1h4c0.52,0,0.95-0.39,1-0.91l0.77-8.47c0.1-1.15,0.88-2.15,1.96-2.55l1.04-0.38c3.38-1.23,6.09-3.63,7.7-6.69
	h11.71c0.53,0,0.97,0.42,1,0.95L52,93.05c0.03,0.53,0.47,0.95,1,0.95h3c0.52,0,0.95-0.39,1-0.91l0.91-10.02
	c0.51-5.56,2.74-10.81,6.45-15.19c2.85-3.36,4.31-7.48,4.23-11.9C68.56,54.52,68.35,53.03,67.97,51.55z M30,60
	c-0.74,0-1.39-0.4-1.73-1h3.09c-0.37,0.3-0.71,0.63-1.03,0.98C30.22,59.99,30.11,60,30,60z M62.83,66.59
	c-3.98,4.69-6.38,10.33-6.92,16.3L55.09,92h-1.13L53,70.97c-0.02-0.55-0.48-0.98-1.03-0.97c-0.55,0.02-0.99,0.48-0.97,1.03
	l0.06,2.12C50.78,73.06,50.49,73,50.18,73H39.33c0.32-0.92,0.54-1.88,0.66-2.88c0.07-0.55-0.32-1.05-0.87-1.12
	c-0.55-0.06-1.05,0.32-1.12,0.87c-0.57,4.56-3.61,8.37-7.93,9.94l-1.04,0.38c-1.81,0.66-3.1,2.33-3.27,4.25L25.09,92H23V77.94
	c3.94-0.49,7-3.87,7-7.94v-4c0-3.86,3.14-7,7-7h14.75c3.88,0,7.14-3.04,7.25-6.79c0.06-1.91-0.64-3.72-1.97-5.09
	C55.69,45.75,53.91,45,52,45h-2c-0.89,0-1.64-0.58-1.9-1.38L54.21,41h5.4c3.12,2.92,5.28,6.64,6.42,11.05
	c0.35,1.33,0.53,2.66,0.56,3.97C66.67,59.95,65.37,63.6,62.83,66.59z"/>
<g>
	<g>
		<path class="st10" d="M57,54L57,54c1.26,4.4,4.53,7.95,8.82,9.56L67,64l-2,4l-1.46-0.65C58.78,65.24,55.26,61.05,54,56l0,0L57,54z
			"/>
	</g>
	<g>
		<path class="st13" d="M62.92,62.28l-2.27,3.41c0.9,0.64,1.86,1.21,2.88,1.66L65,68l2-4l-1.18-0.44L62.92,62.28z"/>
	</g>
	<g>
		<g>
			<path class="st14" d="M56,59.56L56,59.56l2.35-2.36c-0.57-1-1.03-2.07-1.35-3.19l-3,2c0.35,1.41,0.88,2.75,1.56,4L56,59.56z"/>
		</g>
	</g>
	<g>
		<circle class="st15" cx="65" cy="70" r="2"/>
	</g>
	<path class="st6" d="M66.43,67.38l1.47-2.93c0.13-0.25,0.14-0.55,0.04-0.81c-0.1-0.26-0.31-0.47-0.58-0.57l-1.18-0.44
		c-3.97-1.49-7.04-4.82-8.21-8.89c-0.09-0.31-0.32-0.55-0.62-0.66c-0.3-0.11-0.63-0.07-0.9,0.11l-3,2
		c-0.35,0.23-0.52,0.67-0.42,1.07c1.31,5.24,4.84,9.51,9.7,11.82C62.28,68.58,62,69.26,62,70c0,1.65,1.35,3,3,3s3-1.35,3-3
		C68,68.87,67.36,67.89,66.43,67.38z M55.15,56.43l1.31-0.88c1.57,4.1,4.86,7.38,9,8.94l0.14,0.05l-1.08,2.15l-0.59-0.26
		C59.65,64.53,56.48,60.91,55.15,56.43z M65,71c-0.55,0-1-0.45-1-1s0.45-1,1-1s1,0.45,1,1S65.55,71,65,71z"/>
</g>
</svg>
