<?xml version="1.0" encoding="utf-8"?>
<!-- Generator: Adobe Illustrator 23.0.1, SVG Export Plug-In . SVG Version: 6.00 Build 0)  -->
<svg version="1.1" id="Layer_1" xmlns="http://www.w3.org/2000/svg" xmlns:xlink="http://www.w3.org/1999/xlink" x="0px" y="0px"
	 viewBox="0 0 82 84" style="enable-background:new 0 0 82 84;" xml:space="preserve">
<style type="text/css">
	.st0{fill:#ABE1FA;}
	.st1{fill:#BFE7FB;}
	.st2{fill:#D4EFFC;}
	.st3{fill:#B0C4D9;}
	.st4{fill:#310E31;}
	.st5{fill:#D5E3EF;}
	.st6{fill:#FFFFFF;}
	.st7{fill:#C97629;}
	.st8{fill:#B06328;}
	.st9{fill:#A35425;}
	.st10{fill:#FFE27A;}
	.st11{fill:#F19920;}
	.st12{fill:#FFCB5B;}
	.st13{fill:#E78825;}
	.st14{fill:#3689C9;}
	.st15{fill:#1470B8;}
	.st16{fill:#F6B545;}
	.st17{fill:#9D6129;}
	.st18{fill:#894626;}
	.st19{fill:#9AC75E;}
	.st20{fill:#71AC43;}
	.st21{fill:#609A41;}
	.st22{fill:#73371B;}
	.st23{fill:#C9D5E3;}
	.st24{fill:#4C9CD6;}
	.st25{fill:#70B7E5;}
	.st26{fill:#FFEDA9;}
	.st27{fill:#FFFCD5;}
	.st28{fill:#BBD976;}
	.st29{fill:#E1EEC5;}
	.st30{fill:#F04B4D;}
	.st31{fill:#CC3341;}
</style>
<g>
	<path class="st10" d="M78.96,54.51c-0.31-3.65-2.68-6.86-6.49-9.4c-6.76-4.51-8.69-13.71-4.32-20.57c2.46-3.85,3.32-7.74,2.14-11.2
		C67.05,3.77,49.47,1.12,31.03,7.41S0.27,26.54,3.52,36.1c1.05,3.08,3.59,5.45,7.17,7.02c3.23,1.42,4.1,5.54,1.71,8.14
		c-2.64,2.88-4.01,6.07-3.73,9.31c0.87,10.06,17.3,16.85,36.71,15.18C64.8,74.07,79.83,64.56,78.96,54.51z"/>
</g>
<g>
	<g>
		<rect x="69" y="65" class="st11" width="8" height="18"/>
	</g>
	<g>
		<g>
			<path class="st12" d="M70.5,78c-0.28,0-0.5-0.22-0.5-0.5V66h2.5c0.28,0,0.5,0.22,0.5,0.5S72.78,67,72.5,67H72c-0.55,0-1,0.45-1,1
				v9.5C71,77.78,70.78,78,70.5,78z"/>
		</g>
	</g>
	<g>
		<g>
			<path class="st13" d="M75.5,70c0.28,0,0.5,0.22,0.5,0.5V82h-2.5c-0.28,0-0.5-0.22-0.5-0.5s0.22-0.5,0.5-0.5H74c0.55,0,1-0.45,1-1
				v-9.5C75,70.22,75.22,70,75.5,70z"/>
		</g>
	</g>
	<path class="st4" d="M77,64v-0.98c0-0.57-0.55-1.02-1.23-1.02c-0.24,0-0.48,0.06-0.68,0.17L73,63.33l-2.09-1.16
		c-0.2-0.11-0.44-0.17-0.68-0.17C69.55,62,69,62.46,69,63.02V64c-0.55,0-1,0.45-1,1v18c0,0.55,0.45,1,1,1h8c0.55,0,1-0.45,1-1V65
		C78,64.45,77.55,64,77,64z M76,82h-6V66h6V82z"/>
</g>
<g>
	<g>
		<rect x="40" y="67" class="st14" width="16" height="16"/>
	</g>
	<path class="st4" d="M56,66h-4v-0.98c0-0.57-0.55-1.02-1.23-1.02c-0.24,0-0.48,0.06-0.68,0.17L48,65.33l-2.09-1.16
		c-0.2-0.11-0.44-0.17-0.68-0.17C44.55,64,44,64.46,44,65.02V66h-4c-0.55,0-1,0.45-1,1v16c0,0.55,0.45,1,1,1h16c0.55,0,1-0.45,1-1
		V67C57,66.45,56.55,66,56,66z M55,82H41V68h14V82z"/>
	<g>
		<g>
			<path class="st15" d="M54.5,70c0.28,0,0.5,0.22,0.5,0.5V82h-4.5c-0.28,0-0.5-0.22-0.5-0.5s0.22-0.5,0.5-0.5H53c0.55,0,1-0.45,1-1
				v-9.5C54,70.22,54.22,70,54.5,70z"/>
		</g>
	</g>
	<g>
		<rect x="51" y="68" class="st16" width="2" height="14"/>
	</g>
	<g>
		<rect x="41" y="77" class="st16" width="14" height="2"/>
	</g>
	<g>
		<rect x="54" y="77" class="st11" width="1" height="2"/>
	</g>
	<g>
		<rect x="51.5" y="80.5" transform="matrix(-1.836970e-16 1 -1 -1.836970e-16 133.5 29.5)" class="st11" width="1" height="2"/>
	</g>
</g>
<g>
	<polygon class="st12" points="41,1 43.47,6.4 49,7.2 45,11.1 45.94,17 41,14.01 36.06,17 37,11.1 33,7.2 38.53,6.4 	"/>
</g>
<g>
	<polygon class="st16" points="43,7 41,10 41,2 	"/>
</g>
<g>
	<rect x="37" y="72" class="st17" width="8" height="11"/>
</g>
<g>
	<path class="st18" d="M38,72v2h0c1.66,0,3,1.34,3,3v3c0,1.1,0.9,2,2,2h2l-1-8v-2H38z"/>
</g>
<g>
	<path class="st19" d="M63,70L63,70c-1.99,0.66-4.07,1-6.16,1H25.16c-2.09,0-4.18-0.34-6.16-1h0l7-15h30L63,70z"/>
</g>
<g>
	<path class="st4" d="M81,84H1c-0.55,0-1-0.45-1-1s0.45-1,1-1h80c0.55,0,1,0.45,1,1S81.55,84,81,84z"/>
</g>
<g>
	<path class="st4" d="M47,84H35c-0.4,0-0.77-0.24-0.92-0.62c-0.15-0.37-0.07-0.8,0.22-1.09c1.1-1.1,1.71-2.56,1.71-4.12V71
		c0-0.55,0.45-1,1-1h8c0.55,0,1,0.45,1,1v7.17c0,1.56,0.61,3.02,1.71,4.12c0.29,0.29,0.37,0.72,0.22,1.09C47.77,83.76,47.4,84,47,84
		z M37,82H45c-0.65-1.16-1-2.47-1-3.83V72h-6v6.17C38,79.53,37.65,80.84,37,82z"/>
</g>
<g>
	<path class="st19" d="M59,54L59,54c-1.99,0.66-4.07,1-6.16,1H29.16c-2.09,0-4.18-0.34-6.16-1h0l8-15h20L59,54z"/>
</g>
<g>
	<path class="st20" d="M56,55h-9.55H26l0,0c-0.61,1.3,0.26,2.83,1.69,2.94c0.49,0.04,0.98,0.06,1.47,0.06l10.01,0.56
		c4.59,0.26,8.41,3.63,9.23,8.15v0c0.35,1.9,2,3.28,3.94,3.28H55c2.09,0,6.01,0.66,8,0L56,55z"/>
</g>
<g>
	<path class="st19" d="M54,38L54,38c-1.99,0.66-4.07,1-6.16,1H34.16c-2.09,0-4.18-0.34-6.16-1l0,0l11.57-24.1
		C39.83,13.35,40.39,13,41,13l0,0c0.61,0,1.17,0.35,1.43,0.9L54,38z"/>
</g>
<g>
	<g>
		<path class="st20" d="M43.32,22.39l2.43,13.15c0.26,1.41,1.48,2.44,2.91,2.46C49.06,38,49.28,38,49,38c0,0,3.01,0.66,5,0
			l-8.17-16.45C45.14,20.16,43.04,20.86,43.32,22.39z"/>
	</g>
</g>
<g>
	<path class="st20" d="M51,39h-6.67H31l0,0c-0.67,1.26,0.16,2.82,1.58,2.93c0.52,0.04,1.05,0.07,1.58,0.07l3.31,0.31
		c4.45,0.41,8.08,3.73,8.88,8.13l0.05,0.28c0.35,1.9,2,3.28,3.94,3.28c0.55,0,0.88,0,0.66,0l1.84,1c2.09,0,4.18-0.34,6.16-1L51,39z"
		/>
</g>
<g>
	<g>
		<path class="st21" d="M59.95,67.5c-0.19,0-0.37-0.11-0.45-0.29L57.99,64C56,59.73,51.71,57,47,57h0c-0.28,0-0.5-0.22-0.5-0.5
			S46.72,56,47,56h8.36l5.04,10.79c0.12,0.25,0.01,0.55-0.24,0.67C60.09,67.49,60.02,67.5,59.95,67.5z"/>
	</g>
</g>
<g>
	<g>
		<path class="st21" d="M55.17,50.5c-0.18,0-0.35-0.1-0.44-0.26l-2.2-4.12C50.85,42.97,47.57,41,44,41h0c-0.28,0-0.5-0.22-0.5-0.5
			S43.72,40,44,40h6.4l5.21,9.76c0.13,0.24,0.04,0.55-0.21,0.68C55.33,50.48,55.25,50.5,55.17,50.5z"/>
	</g>
</g>
<path class="st4" d="M63.91,69.58l-6.57-14.09c0.67-0.15,1.33-0.32,1.98-0.54c0.28-0.09,0.5-0.3,0.61-0.58
	c0.11-0.27,0.09-0.58-0.05-0.84l-7.49-14.05c0.65-0.15,1.29-0.32,1.93-0.53c0.27-0.09,0.49-0.29,0.6-0.56
	c0.11-0.26,0.1-0.56-0.02-0.82l-11.57-24.1C42.91,12.58,41.99,12,41,12s-1.91,0.58-2.33,1.47L27.1,37.57
	c-0.12,0.26-0.13,0.56-0.02,0.82c0.11,0.26,0.33,0.47,0.6,0.56c0.63,0.21,1.28,0.38,1.93,0.53l-7.49,14.05
	c-0.14,0.26-0.16,0.57-0.05,0.84c0.11,0.27,0.33,0.49,0.61,0.58c0.65,0.22,1.32,0.39,1.98,0.54l-6.57,14.09
	c-0.12,0.26-0.12,0.56-0.01,0.82c0.11,0.26,0.33,0.46,0.6,0.55c2.09,0.7,4.27,1.05,6.48,1.05h31.68c2.21,0,4.38-0.35,6.48-1.05
	c0.27-0.09,0.49-0.29,0.6-0.55C64.03,70.13,64.03,69.84,63.91,69.58z M40.47,14.33c0.19-0.41,0.87-0.41,1.06,0l11.06,23.04
	C51.04,37.79,49.45,38,47.84,38H34.16c-1.61,0-3.2-0.21-4.75-0.62L40.47,14.33z M31.6,40h2.56h13.68h2.56l7.14,13.39
	c-1.53,0.4-3.11,0.61-4.7,0.61H29.16c-1.59,0-3.17-0.2-4.7-0.61L31.6,40z M56.84,70H25.16c-1.61,0-3.21-0.21-4.77-0.62L26.64,56
	h2.53h23.68h2.53l6.24,13.38C60.05,69.79,58.45,70,56.84,70z"/>
<g>
	<path class="st22" d="M38,72v1h1c2.21,0,4,1.79,4,4l0,0c0,0.55,0.45,1,1,1l0,0v-5v-1H38z"/>
</g>
<g>
	<g>
		<path class="st6" d="M29,32c-0.13,0-0.26-0.03-0.38-0.08c-0.13-0.05-0.23-0.12-0.33-0.21C28.11,31.52,28,31.26,28,31
			c0-0.13,0.03-0.26,0.08-0.38c0.05-0.13,0.12-0.23,0.21-0.33c0.1-0.09,0.2-0.16,0.33-0.21c0.24-0.1,0.52-0.1,0.76,0
			c0.12,0.05,0.23,0.12,0.33,0.21c0.09,0.1,0.16,0.2,0.21,0.33C29.98,30.74,30,30.87,30,31c0,0.26-0.11,0.52-0.29,0.71
			c-0.1,0.09-0.21,0.16-0.33,0.21C29.26,31.97,29.13,32,29,32z"/>
	</g>
	<g>
		<path class="st6" d="M51.17,36.99c-0.56-0.01-1-0.46-0.99-1.01l0,0c0.01-0.56,0.47-1,1.02-0.99l0,0c0.55,0.01,0.99,0.47,0.98,1.02
			l0,0C52.17,36.56,51.73,36.99,51.17,36.99L51.17,36.99L51.17,36.99z M47.29,36.8c-0.55-0.05-0.96-0.53-0.92-1.08l0,0
			c0.05-0.55,0.53-0.96,1.09-0.92l0,0c0.55,0.05,0.95,0.53,0.91,1.08l0,0c-0.05,0.53-0.48,0.92-1,0.92l0,0
			C47.34,36.8,47.31,36.8,47.29,36.8z M43.43,36.34c-0.55-0.09-0.92-0.6-0.84-1.14l0,0c0.09-0.55,0.6-0.92,1.14-0.84l0,0
			c0.55,0.08,0.92,0.59,0.84,1.14l0,0c-0.08,0.5-0.5,0.85-0.99,0.85l0,0C43.53,36.35,43.48,36.34,43.43,36.34z M39.62,35.61
			c-0.55-0.12-0.88-0.65-0.76-1.19l0,0c0.12-0.54,0.65-0.88,1.19-0.76l0,0l0,0l0,0c0.54,0.12,0.88,0.66,0.76,1.2l0,0
			c-0.11,0.46-0.52,0.78-0.98,0.78l0,0C39.76,35.64,39.69,35.63,39.62,35.61z M35.86,34.63c-0.53-0.16-0.83-0.71-0.68-1.24l0,0
			c0.16-0.53,0.72-0.83,1.25-0.68l0,0c0.53,0.16,0.83,0.72,0.67,1.25l0,0c-0.13,0.43-0.53,0.71-0.96,0.71l0,0
			C36.05,34.67,35.95,34.66,35.86,34.63z M32.17,33.4L32.17,33.4c-0.51-0.2-0.77-0.77-0.58-1.29l0,0c0.19-0.52,0.77-0.78,1.29-0.59
			l0,0c0.51,0.2,0.78,0.77,0.58,1.29l0,0c-0.15,0.4-0.53,0.65-0.94,0.65l0,0C32.41,33.46,32.29,33.44,32.17,33.4z"/>
	</g>
	<g>
		<path class="st6" d="M55,37c-0.13,0-0.26-0.02-0.38-0.08c-0.13-0.05-0.23-0.12-0.33-0.21c-0.04-0.05-0.08-0.1-0.12-0.15
			c-0.04-0.06-0.07-0.12-0.09-0.18c-0.03-0.06-0.05-0.12-0.06-0.18C54.01,36.13,54,36.06,54,36c0-0.13,0.03-0.26,0.08-0.38
			c0.05-0.12,0.12-0.23,0.21-0.33c0.1-0.09,0.2-0.16,0.33-0.21c0.24-0.1,0.52-0.1,0.76,0c0.13,0.05,0.24,0.12,0.33,0.21
			C55.89,35.48,56,35.74,56,36c0,0.06-0.01,0.13-0.02,0.2c-0.01,0.06-0.03,0.12-0.06,0.18c-0.02,0.06-0.05,0.12-0.09,0.18
			c-0.03,0.05-0.08,0.1-0.12,0.15C55.52,36.89,55.26,37,55,37z"/>
	</g>
</g>
<g>
	<path class="st6" d="M33,25c0-0.55,0.45-1,1-1l0,0c0.55,0,1,0.45,1,1l0,0c0,0.55-0.45,1-1,1l0,0C33.45,26,33,25.55,33,25z
		 M37,24.85c-0.12-0.54,0.22-1.07,0.76-1.19l0,0c0.54-0.12,1.07,0.22,1.19,0.76l0,0c0.12,0.54-0.22,1.07-0.76,1.19l0,0
		c-0.07,0.02-0.14,0.02-0.22,0.02l0,0C37.51,25.63,37.1,25.32,37,24.85z M40.83,23.73c-0.25-0.49-0.06-1.09,0.43-1.35l0,0l0,0l0,0
		c0.49-0.25,1.09-0.06,1.35,0.43l0,0c0.25,0.49,0.06,1.09-0.43,1.35l0,0c-0.15,0.07-0.3,0.11-0.46,0.11l0,0
		C41.36,24.27,41.01,24.07,40.83,23.73z M44.25,21.66c-0.37-0.41-0.34-1.04,0.07-1.41l0,0c0.4-0.37,1.04-0.35,1.41,0.06l0,0
		c0.37,0.41,0.34,1.04-0.06,1.42l0,0c-0.2,0.17-0.44,0.26-0.68,0.26l0,0C44.72,21.99,44.45,21.88,44.25,21.66z"/>
</g>
<g>
	<g>
		<path class="st6" d="M54,43c-0.13,0-0.26-0.02-0.38-0.08c-0.12-0.05-0.23-0.12-0.33-0.21c-0.04-0.05-0.09-0.1-0.12-0.15
			c-0.04-0.06-0.07-0.12-0.09-0.18c-0.03-0.06-0.05-0.12-0.06-0.18C53.01,42.13,53,42.06,53,42c0-0.26,0.11-0.52,0.29-0.71
			c0.38-0.37,1.04-0.37,1.42,0C54.89,41.48,55,41.74,55,42c0,0.06-0.01,0.13-0.02,0.2c-0.01,0.06-0.03,0.12-0.06,0.18
			c-0.02,0.06-0.05,0.12-0.09,0.18c-0.04,0.05-0.08,0.1-0.12,0.15c-0.1,0.09-0.21,0.16-0.33,0.21C54.26,42.98,54.13,43,54,43z"/>
	</g>
	<g>
		<path class="st6" d="M26.13,51c-0.01-0.55,0.44-1,0.99-1l0,0c0.55,0,1,0.44,1.01,1l0,0c0,0.55-0.45,1-1,1l0,0
			C26.58,52,26.13,51.55,26.13,51z M30.24,50.89c-0.05-0.55,0.35-1.03,0.9-1.09v0.01c0.55-0.06,1.04,0.34,1.09,0.89l0,0
			c0.05,0.56-0.35,1.04-0.9,1.1l0,0c-0.03,0-0.06,0-0.1,0l0,0C30.73,51.8,30.29,51.41,30.24,50.89z M34.33,50.41
			c-0.1-0.54,0.26-1.07,0.8-1.17l0,0c0.54-0.1,1.07,0.26,1.17,0.8l0,0c0.1,0.54-0.26,1.07-0.8,1.17l0,0l0,0l0,0
			c-0.06,0.01-0.13,0.01-0.19,0.01l0,0C34.84,51.22,34.42,50.89,34.33,50.41z M38.36,49.55c-0.15-0.53,0.16-1.08,0.69-1.23l0,0
			c0.53-0.15,1.08,0.16,1.23,0.69l0,0c0.15,0.53-0.15,1.08-0.68,1.23l0,0c-0.1,0.03-0.19,0.04-0.28,0.04l0,0
			C38.88,50.28,38.48,49.99,38.36,49.55z M42.29,48.33c-0.2-0.51,0.06-1.09,0.58-1.29l0,0c0.51-0.2,1.09,0.06,1.29,0.57l0,0
			c0.2,0.52-0.06,1.1-0.57,1.3l0,0c-0.12,0.04-0.24,0.06-0.36,0.06l0,0C42.83,48.97,42.45,48.73,42.29,48.33z M46.1,46.76
			c-0.25-0.5-0.05-1.1,0.45-1.34l0,0c0.49-0.25,1.09-0.04,1.34,0.45l0,0c0.24,0.49,0.04,1.09-0.45,1.34l0,0l0,0l0,0
			c-0.14,0.07-0.29,0.1-0.44,0.1l0,0C46.63,47.31,46.27,47.11,46.1,46.76z M49.74,44.84c-0.29-0.47-0.14-1.08,0.33-1.37l0,0
			c0.47-0.29,1.09-0.15,1.38,0.33l0,0c0.28,0.46,0.14,1.08-0.33,1.37l0,0c-0.16,0.1-0.34,0.15-0.52,0.15l0,0
			C50.26,45.32,49.93,45.15,49.74,44.84z"/>
	</g>
	<g>
		<path class="st6" d="M23,52c-0.27,0-0.52-0.1-0.71-0.29C22.1,51.52,22,51.27,22,51c0-0.26,0.11-0.52,0.29-0.71
			c0.05-0.04,0.1-0.09,0.15-0.12c0.06-0.04,0.12-0.07,0.18-0.09c0.06-0.03,0.12-0.05,0.19-0.06c0.12-0.03,0.26-0.03,0.39,0
			c0.06,0.01,0.12,0.03,0.18,0.06c0.06,0.02,0.12,0.05,0.18,0.09c0.05,0.03,0.1,0.08,0.15,0.12C23.89,50.48,24,50.74,24,51
			c0,0.27-0.1,0.52-0.29,0.71C23.52,51.9,23.27,52,23,52z"/>
	</g>
</g>
<g>
	<path class="st6" d="M59.85,67c0-0.55,0.44-1,1-1l0,0c0.55,0,1,0.45,1,1l0,0c0,0.55-0.45,1-1,1l0,0C60.29,68,59.85,67.55,59.85,67z
		 M56.82,67.98c-0.55-0.01-0.99-0.47-0.98-1.02l0,0c0.02-0.55,0.47-0.99,1.03-0.98l0,0l0,0l0,0c0.55,0.01,0.99,0.47,0.97,1.02l0,0
		c-0.01,0.55-0.45,0.98-1,0.98l0,0C56.84,67.98,56.83,67.98,56.82,67.98z M52.78,67.81c-0.55-0.04-0.97-0.52-0.93-1.07l0,0
		c0.04-0.55,0.52-0.97,1.07-0.93l0,0c0.55,0.03,0.96,0.51,0.93,1.06l0,0c-0.04,0.53-0.48,0.94-1,0.94l0,0
		C52.83,67.81,52.81,67.81,52.78,67.81z M48.75,67.45c-0.54-0.07-0.94-0.56-0.88-1.11l0,0c0.06-0.55,0.56-0.94,1.11-0.88l0,0
		c0.55,0.06,0.94,0.55,0.88,1.1l0,0c-0.06,0.52-0.49,0.89-1,0.89l0,0C48.83,67.45,48.79,67.45,48.75,67.45z M44.75,66.91V66.9
		c-0.55-0.08-0.92-0.59-0.83-1.14l0,0c0.08-0.54,0.6-0.92,1.14-0.83l0,0l0,0l0,0c0.54,0.09,0.92,0.6,0.83,1.14l0,0
		c-0.08,0.5-0.5,0.85-0.99,0.85l0,0C44.85,66.92,44.8,66.91,44.75,66.91z M40.77,66.18L40.77,66.18c-0.54-0.11-0.89-0.64-0.78-1.18
		l0,0c0.11-0.54,0.64-0.89,1.18-0.78l0,0l0,0l0,0c0.54,0.11,0.89,0.64,0.78,1.18l0,0c-0.1,0.48-0.52,0.8-0.98,0.8l0,0
		C40.9,66.2,40.83,66.2,40.77,66.18z M36.83,65.28c-0.54-0.13-0.87-0.68-0.73-1.21l0,0c0.14-0.54,0.68-0.86,1.21-0.73l0,0
		c0.54,0.14,0.86,0.68,0.73,1.22l0,0c-0.12,0.45-0.52,0.75-0.97,0.75l0,0C36.99,65.31,36.91,65.3,36.83,65.28z M32.93,64.2
		c-0.53-0.16-0.83-0.72-0.67-1.25l0,0c0.16-0.52,0.72-0.82,1.24-0.66l0,0c0.53,0.16,0.83,0.71,0.67,1.24l0,0
		c-0.13,0.43-0.53,0.71-0.96,0.71l0,0C33.12,64.24,33.02,64.23,32.93,64.2z M29.08,62.94c-0.52-0.18-0.79-0.75-0.61-1.27l0,0
		c0.18-0.52,0.75-0.8,1.28-0.61l0,0c0.52,0.18,0.79,0.75,0.61,1.27l0,0C30.21,62.74,29.83,63,29.41,63l0,0
		C29.3,63,29.19,62.98,29.08,62.94z M25.3,61.51L25.3,61.51c-0.52-0.2-0.76-0.79-0.56-1.3l0,0c0.21-0.51,0.79-0.76,1.31-0.55l0,0
		c0.51,0.21,0.76,0.79,0.55,1.3l0,0c-0.16,0.39-0.53,0.63-0.93,0.63l0,0C25.55,61.59,25.42,61.56,25.3,61.51z M21.29,59.71
		C21.11,59.52,21,59.26,21,59l0,0c0-0.26,0.11-0.52,0.29-0.71l0,0C21.48,58.11,21.74,58,22,58l0,0c0.26,0,0.52,0.11,0.71,0.29l0,0
		C22.89,58.48,23,58.74,23,59l0,0c0,0.26-0.11,0.52-0.29,0.71l0,0C22.52,59.89,22.26,60,22,60l0,0C21.74,60,21.48,59.89,21.29,59.71
		z"/>
</g>
<g>
	<polygon class="st16" points="45.94,17 41,14 41,10 	"/>
</g>
<g>
	<polygon class="st16" points="36.06,17 41,14 41,10 	"/>
</g>
<g>
	<polygon class="st16" points="49,7 45,11.1 41,10 	"/>
</g>
<g>
	<polygon class="st16" points="33,7 37,11.1 41,10 	"/>
</g>
<g>
	<path class="st4" d="M45.94,18c-0.18,0-0.36-0.05-0.52-0.14L41,15.18l-4.43,2.68c-0.33,0.2-0.75,0.19-1.08-0.03
		c-0.32-0.22-0.49-0.6-0.43-0.99l0.86-5.38L32.3,7.92c-0.27-0.27-0.37-0.66-0.25-1.03c0.12-0.36,0.43-0.63,0.81-0.68l4.99-0.72
		l2.25-4.91C40.25,0.23,40.61,0,41,0s0.75,0.23,0.91,0.58l2.25,4.91l4.99,0.72c0.38,0.05,0.69,0.32,0.81,0.68
		c0.12,0.36,0.02,0.76-0.25,1.03l-3.63,3.54l0.86,5.38c0.06,0.38-0.11,0.77-0.43,0.99C46.33,17.94,46.14,18,45.94,18z M41,13.01
		c0.18,0,0.36,0.05,0.52,0.14l3.1,1.87l-0.6-3.77c-0.05-0.32,0.06-0.65,0.29-0.87l2.55-2.48l-3.52-0.51
		c-0.34-0.05-0.62-0.26-0.77-0.57L41,3.4l-1.56,3.41c-0.14,0.31-0.43,0.52-0.77,0.57L35.15,7.9l2.55,2.48
		c0.23,0.23,0.34,0.55,0.29,0.87l-0.6,3.77l3.1-1.87C40.64,13.06,40.82,13.01,41,13.01z"/>
</g>
<g>
	<g>
		<rect x="7" y="67" class="st11" width="16" height="16"/>
	</g>
	<path class="st4" d="M23,66h-4v-0.98c0-0.57-0.55-1.02-1.23-1.02c-0.24,0-0.48,0.06-0.68,0.17L15,65.33l-2.09-1.16
		c-0.2-0.11-0.44-0.17-0.68-0.17C11.55,64,11,64.46,11,65.02V66H7c-0.55,0-1,0.45-1,1v16c0,0.55,0.45,1,1,1h16c0.55,0,1-0.45,1-1V67
		C24,66.45,23.55,66,23,66z M22,82H8V68h14V82z"/>
	<g>
		<g>
			<path class="st12" d="M8.5,80C8.22,80,8,79.78,8,79.5V68h4.5c0.28,0,0.5,0.22,0.5,0.5S12.78,69,12.5,69H10c-0.55,0-1,0.45-1,1
				v9.5C9,79.78,8.78,80,8.5,80z"/>
		</g>
	</g>
	<g>
		<g>
			<path class="st13" d="M21.5,70c0.28,0,0.5,0.22,0.5,0.5V82h-4.5c-0.28,0-0.5-0.22-0.5-0.5s0.22-0.5,0.5-0.5H20c0.55,0,1-0.45,1-1
				v-9.5C21,70.22,21.22,70,21.5,70z"/>
		</g>
	</g>
	<g>
		<rect x="14" y="68" class="st6" width="2" height="14"/>
	</g>
	<g>
		<rect x="8" y="74" class="st6" width="14" height="2"/>
	</g>
	<g>
		<rect x="21" y="74" class="st23" width="1" height="2"/>
	</g>
</g>
<g>
	<g>
		<rect x="19" y="77" class="st24" width="20" height="6"/>
	</g>
	<path class="st4" d="M39,76h-6v-0.98c0-0.57-0.55-1.02-1.23-1.02c-0.24,0-0.48,0.06-0.68,0.17L29,75.33l-2.09-1.16
		c-0.2-0.11-0.44-0.17-0.68-0.17C25.55,74,25,74.46,25,75.02V76h-6c-0.55,0-1,0.45-1,1v6c0,0.55,0.45,1,1,1h20c0.55,0,1-0.45,1-1v-6
		C40,76.45,39.55,76,39,76z M38,82H20v-4h18V82z"/>
	<g>
		<g>
			<path class="st25" d="M32,78.5c0-0.28-0.22-0.5-0.5-0.5H20v2.5c0,0.28,0.22,0.5,0.5,0.5s0.5-0.22,0.5-0.5V80c0-0.55,0.45-1,1-1
				h9.5C31.78,79,32,78.78,32,78.5z"/>
		</g>
	</g>
	<g>
		<g>
			<path class="st14" d="M26,81.5c0,0.28,0.22,0.5,0.5,0.5H38v-2.5c0-0.28-0.22-0.5-0.5-0.5S37,79.22,37,79.5V80c0,0.55-0.45,1-1,1
				h-9.5C26.22,81,26,81.22,26,81.5z"/>
		</g>
	</g>
	<g>
		<rect x="27" y="78" class="st26" width="4" height="4"/>
	</g>
	<g>
		<rect x="27" y="81" class="st12" width="4" height="1"/>
	</g>
	<g>
		<rect x="27" y="78" class="st27" width="4" height="1"/>
	</g>
</g>
<g>
	<g>
		<rect x="52" y="77" class="st28" width="20" height="6"/>
	</g>
	<path class="st4" d="M72,76h-6v-0.98c0-0.57-0.55-1.02-1.23-1.02c-0.24,0-0.48,0.06-0.68,0.17L62,75.33l-2.09-1.16
		c-0.2-0.11-0.44-0.17-0.68-0.17C58.55,74,58,74.46,58,75.02V76h-6c-0.55,0-1,0.45-1,1v6c0,0.55,0.45,1,1,1h20c0.55,0,1-0.45,1-1v-6
		C73,76.45,72.55,76,72,76z M71,82H53v-4h18V82z"/>
	<g>
		<g>
			<path class="st29" d="M65,78.5c0-0.28-0.22-0.5-0.5-0.5H53v2.5c0,0.28,0.22,0.5,0.5,0.5s0.5-0.22,0.5-0.5V80c0-0.55,0.45-1,1-1
				h9.5C64.78,79,65,78.78,65,78.5z"/>
		</g>
	</g>
	<g>
		<g>
			<path class="st19" d="M59,81.5c0,0.28,0.22,0.5,0.5,0.5H71v-2.5c0-0.28-0.22-0.5-0.5-0.5S70,79.22,70,79.5V80c0,0.55-0.45,1-1,1
				h-9.5C59.22,81,59,81.22,59,81.5z"/>
		</g>
	</g>
	<g>
		<rect x="60" y="78" class="st24" width="4" height="4"/>
	</g>
	<g>
		<rect x="60" y="81" class="st14" width="4" height="1"/>
	</g>
	<g>
		<rect x="60" y="78" class="st25" width="4" height="1"/>
	</g>
</g>
<g>
	<path class="st26" d="M19.5,27.5L19.5,27.5c-0.55,0-1-0.45-1-1v0c0-0.28-0.22-0.5-0.5-0.5s-0.5,0.22-0.5,0.5v0c0,0.55-0.45,1-1,1h0
		c-0.28,0-0.5,0.22-0.5,0.5c0,0.28,0.22,0.5,0.5,0.5h0c0.55,0,1,0.45,1,1v0c0,0.28,0.22,0.5,0.5,0.5s0.5-0.22,0.5-0.5v0
		c0-0.55,0.45-1,1-1h0c0.28,0,0.5-0.22,0.5-0.5C20,27.72,19.78,27.5,19.5,27.5z"/>
</g>
<g>
	<path class="st26" d="M31.5,15.5L31.5,15.5c-0.55,0-1-0.45-1-1v0c0-0.28-0.22-0.5-0.5-0.5s-0.5,0.22-0.5,0.5v0c0,0.55-0.45,1-1,1h0
		c-0.28,0-0.5,0.22-0.5,0.5c0,0.28,0.22,0.5,0.5,0.5h0c0.55,0,1,0.45,1,1v0c0,0.28,0.22,0.5,0.5,0.5s0.5-0.22,0.5-0.5v0
		c0-0.55,0.45-1,1-1h0c0.28,0,0.5-0.22,0.5-0.5C32,15.72,31.78,15.5,31.5,15.5z"/>
</g>
<g>
	<path class="st16" d="M10.5,13.5L10.5,13.5c-0.55,0-1-0.45-1-1v0C9.5,12.22,9.28,12,9,12s-0.5,0.22-0.5,0.5v0c0,0.55-0.45,1-1,1h0
		C7.22,13.5,7,13.72,7,14c0,0.28,0.22,0.5,0.5,0.5h0c0.55,0,1,0.45,1,1v0C8.5,15.78,8.72,16,9,16s0.5-0.22,0.5-0.5v0
		c0-0.55,0.45-1,1-1h0c0.28,0,0.5-0.22,0.5-0.5C11,13.72,10.78,13.5,10.5,13.5z"/>
</g>
<g>
	<path class="st12" d="M73.5,33.5L73.5,33.5c-0.55,0-1-0.45-1-1l0,0c0-0.28-0.22-0.5-0.5-0.5s-0.5,0.22-0.5,0.5l0,0
		c0,0.55-0.45,1-1,1l0,0c-0.28,0-0.5,0.22-0.5,0.5c0,0.28,0.22,0.5,0.5,0.5l0,0c0.55,0,1,0.45,1,1l0,0c0,0.28,0.22,0.5,0.5,0.5
		s0.5-0.22,0.5-0.5l0,0c0-0.55,0.45-1,1-1l0,0c0.28,0,0.5-0.22,0.5-0.5C74,33.72,73.78,33.5,73.5,33.5z"/>
</g>
<g>
	<path class="st6" d="M19.5,54.5L19.5,54.5c-0.55,0-1-0.45-1-1l0,0c0-0.28-0.22-0.5-0.5-0.5s-0.5,0.22-0.5,0.5l0,0
		c0,0.55-0.45,1-1,1h0c-0.28,0-0.5,0.22-0.5,0.5c0,0.28,0.22,0.5,0.5,0.5h0c0.55,0,1,0.45,1,1l0,0c0,0.28,0.22,0.5,0.5,0.5
		s0.5-0.22,0.5-0.5l0,0c0-0.55,0.45-1,1-1h0c0.28,0,0.5-0.22,0.5-0.5C20,54.72,19.78,54.5,19.5,54.5z"/>
</g>
<g>
	<path class="st6" d="M62.5,13.5L62.5,13.5c-0.55,0-1-0.45-1-1v0c0-0.28-0.22-0.5-0.5-0.5s-0.5,0.22-0.5,0.5v0c0,0.55-0.45,1-1,1
		l0,0c-0.28,0-0.5,0.22-0.5,0.5c0,0.28,0.22,0.5,0.5,0.5l0,0c0.55,0,1,0.45,1,1v0c0,0.28,0.22,0.5,0.5,0.5s0.5-0.22,0.5-0.5v0
		c0-0.55,0.45-1,1-1l0,0c0.28,0,0.5-0.22,0.5-0.5C63,13.72,62.78,13.5,62.5,13.5z"/>
</g>
<g>
	<circle class="st6" cx="19.5" cy="23.5" r="0.5"/>
</g>
<g>
	<circle class="st6" cx="67.5" cy="57.5" r="0.5"/>
</g>
<g>
	<circle class="st26" cx="67.5" cy="52.5" r="0.5"/>
</g>
<g>
	<circle class="st16" cx="10.5" cy="46.5" r="0.5"/>
</g>
<g>
	<circle class="st16" cx="73.5" cy="27.5" r="0.5"/>
</g>
<g>
	<circle class="st26" cx="58.5" cy="22.5" r="0.5"/>
</g>
<g>
	<circle class="st26" cx="73.5" cy="55.5" r="0.5"/>
</g>
<g>
	<circle class="st10" cx="5.5" cy="52.5" r="0.5"/>
</g>
<g>
	<circle class="st10" cx="72.5" cy="39.5" r="0.5"/>
</g>
<g>
	<circle class="st10" cx="34.5" cy="1.5" r="0.5"/>
</g>
<g>
	<circle class="st6" cx="25.5" cy="21.5" r="0.5"/>
</g>
<g>
	<circle class="st6" cx="22.5" cy="40.5" r="0.5"/>
</g>
<g>
	<circle class="st26" cx="61.5" cy="39.5" r="0.5"/>
</g>
<g>
	<circle class="st26" cx="52.5" cy="23.5" r="0.5"/>
</g>
<g>
	<circle class="st16" cx="77.5" cy="41.5" r="0.5"/>
</g>
<g>
	<circle class="st16" cx="21.5" cy="5.5" r="0.5"/>
</g>
<g>
	<circle class="st6" cx="17" cy="34" r="1"/>
</g>
<g>
	<circle class="st6" cx="54" cy="16" r="1"/>
</g>
<g>
	<circle class="st16" cx="7" cy="47" r="1"/>
</g>
<g>
	<circle class="st10" cx="14" cy="13" r="1"/>
</g>
<g>
	<circle class="st6" cx="61" cy="47" r="1"/>
</g>
<g>
	<circle class="st10" cx="81" cy="63" r="1"/>
</g>
<g>
	<circle class="st16" cx="67" cy="5" r="1"/>
</g>
<g>
	<circle class="st6" cx="60" cy="28" r="1"/>
</g>
</svg>
