<?xml version="1.0" encoding="utf-8"?>
<!-- Generator: Adobe Illustrator 23.0.1, SVG Export Plug-In . SVG Version: 6.00 Build 0)  -->
<svg version="1.1" id="Layer_1" xmlns="http://www.w3.org/2000/svg" xmlns:xlink="http://www.w3.org/1999/xlink" x="0px" y="0px"
	 viewBox="0 0 70 70" style="enable-background:new 0 0 70 70;" xml:space="preserve">
<style type="text/css">
	.st0{fill:#FFEDA9;}
	.st1{fill:#FFE278;}
	.st2{fill:#FFFCD5;}
	.st3{fill:#F6B545;}
	.st4{fill:#310E31;}
	.st5{fill:#FFFFFF;}
	.st6{fill:#C9D5E3;}
	.st7{fill:#FFE27A;}
	.st8{fill:#FDBE52;}
	.st9{fill:#80C56D;}
	.st10{fill:#BCDA86;}
	.st11{fill:#5BAA5D;}
	.st12{fill:#F04B4D;}
	.st13{fill:#C61C31;}
	.st14{fill:#F19920;}
	.st15{fill:#3A8E4E;}
</style>
<g>
	<path class="st0" d="M66.5,34.56c-1.93-3.39-4.01-8.68-2.98-14.63c0.3-1.76,0.29-3.52-0.03-5.22C61.82,5.91,52.15,0,39.44,0
		c-2.93,0-5.92,0.32-8.89,0.95C14.52,4.36,3.17,16.04,5.25,26.99c0.58,3.05,2.1,5.76,4.52,8.07c0.69,0.66,1.17,1.53,1.39,2.52
		c0.04,0.16,0.07,0.32,0.11,0.48c0.83,3.27-0.88,6.55-3.94,7.98c-1.67,0.78-3.18,1.99-4.35,3.65c-2.78,3.92-2.61,9.36,0.38,13.12
		c4.16,5.23,11.83,5.55,16.42,0.96c0.97-0.97,1.72-2.08,2.25-3.26c1.49-3.32,5.3-4.93,8.68-3.59c1.32,0.52,2.68,0.99,4.08,1.39
		C38.67,59.44,42.57,60,46.37,60c11.43,0,20.14-5.14,22.18-13.08C69.56,42.97,68.86,38.7,66.5,34.56z"/>
</g>
<g>
	<path class="st1" d="M64.77,35.54c-2.74-4.82-4.17-10.43-3.22-15.95c0.26-1.5,0.26-3.01-0.02-4.51
		C59.64,5.18,45.96-0.28,30.96,2.91c-15,3.18-25.63,13.8-23.75,23.71c0.51,2.69,1.89,5.05,3.94,7c0.99,0.94,1.66,2.16,1.96,3.53
		c1.79,7.99,10.48,15.87,22.23,19.25c14.76,4.24,28.76-0.23,31.27-9.98C67.53,42.86,66.79,39.1,64.77,35.54z"/>
</g>
<g>
	<path class="st0" d="M52.06,12.62l9.36-0.34L56.2,4.5l0.04-0.02c-0.29-0.19-0.58-0.39-0.89-0.57
		C51.78,15.34,41.11,23.64,28.5,23.64c-8.03,0-15.28-3.37-20.4-8.77c-1.25,1.89-2.14,3.87-2.64,5.89l5.92-1.69l0.34,9.36l7.78-5.23
		l3.22,8.8l5.78-7.37L34.28,32l3.22-8.8l7.78,5.23l0.34-9.36l9.01,2.57L52.06,12.62z"/>
</g>
<g>
	<path class="st2" d="M29.72,1.14c-0.38,0.09-0.76,0.18-1.14,0.28L28.8,1.5l-5.23,7.78l9.36,0.34l-2.57,9.01l9.01-2.57l0.34,9.36
		l7.78-5.23l3.22,8.8l5.78-7.37L62.28,29l1.16-3.18c-0.26-1.85-0.28-3.83,0.08-5.89c0.01-0.06,0.01-0.12,0.02-0.19
		c-2.25,0.58-4.61,0.89-7.04,0.89C43.98,20.64,33.37,12.45,29.72,1.14z"/>
</g>
<g>
	<circle class="st1" cx="12" cy="55" r="9"/>
</g>
<g>
	<path class="st3" d="M21.5,14.5L21.5,14.5c-0.55,0-1-0.45-1-1v0c0-0.28-0.22-0.5-0.5-0.5s-0.5,0.22-0.5,0.5v0c0,0.55-0.45,1-1,1h0
		c-0.28,0-0.5,0.22-0.5,0.5c0,0.28,0.22,0.5,0.5,0.5h0c0.55,0,1,0.45,1,1v0c0,0.28,0.22,0.5,0.5,0.5s0.5-0.22,0.5-0.5v0
		c0-0.55,0.45-1,1-1h0c0.28,0,0.5-0.22,0.5-0.5C22,14.72,21.78,14.5,21.5,14.5z"/>
</g>
<g>
	<circle class="st3" cx="43.5" cy="6.5" r="0.5"/>
</g>
<g>
	<circle class="st3" cx="17.5" cy="56.5" r="0.5"/>
</g>
<g>
	<circle class="st3" cx="44.5" cy="2.5" r="0.5"/>
</g>
<g>
	<circle class="st3" cx="13.5" cy="14.5" r="0.5"/>
</g>
<g>
	<circle class="st3" cx="26.5" cy="19.5" r="0.5"/>
</g>
<g>
	<circle class="st3" cx="9.5" cy="59.5" r="0.5"/>
</g>
<g>
	<circle class="st3" cx="45.5" cy="29.5" r="0.5"/>
</g>
<g>
	<circle class="st3" cx="56.5" cy="17.5" r="0.5"/>
</g>
<g>
	<circle class="st3" cx="49.5" cy="5.5" r="0.5"/>
</g>
<g>
	<circle class="st3" cx="21.5" cy="33.5" r="0.5"/>
</g>
<g>
	<circle class="st3" cx="46" cy="11" r="1"/>
</g>
<g>
	<circle class="st3" cx="48" cy="33" r="1"/>
</g>
<g>
	<circle class="st3" cx="7" cy="53" r="1"/>
</g>
<g>
	<circle class="st3" cx="20" cy="10" r="1"/>
</g>
<g>
	<path class="st4" d="M68,70H2c-0.55,0-1-0.45-1-1s0.45-1,1-1h66c0.55,0,1,0.45,1,1S68.55,70,68,70z"/>
</g>
<g>
	<g>
		<path class="st5" d="M56.14,51h-0.28C53.73,51,52,49.27,52,47.14v0c0-0.09,0-0.18,0.01-0.28L53,33h6l0.99,13.86
			C60,46.95,60,47.05,60,47.14v0C60,49.27,58.27,51,56.14,51z"/>
	</g>
	<g>
		<g>
			<path class="st6" d="M58.99,46.94L58.07,34h-1.38L57,46.94c0,0.07,0,0.13,0,0.2c0,1.58-0.43,2.86-0.95,2.86h0.09
				c1.58,0,2.86-1.28,2.86-2.86C59,47.07,59,47,58.99,46.94z"/>
		</g>
	</g>
	<g>
		<path class="st7" d="M59.36,38h-6.71l-0.63,8.86C52,46.95,52,47.05,52,47.14c0,2.13,1.73,3.86,3.86,3.86h0.28
			c2.13,0,3.86-1.73,3.86-3.86c0-0.09,0-0.18-0.01-0.28L59.36,38z"/>
	</g>
	<g>
		<circle class="st2" cx="56.5" cy="43.5" r="0.5"/>
	</g>
	<g>
		<circle class="st2" cx="55.5" cy="40.5" r="0.5"/>
	</g>
	<path class="st4" d="M60,68h-1c-1.1,0-2-0.9-2-2V51.91c2.27-0.41,4-2.39,4-4.78c0-0.12,0-0.23-0.01-0.35L60,32.93
		C59.96,32.41,59.52,32,59,32h-6c-0.52,0-0.96,0.41-1,0.93l-0.99,13.86C51,46.9,51,47.02,51,47.14c0,2.39,1.73,4.37,4,4.78V66
		c0,1.1-0.9,2-2,2h-1c-0.55,0-1,0.45-1,1s0.45,1,1,1h1h6h1c0.55,0,1-0.45,1-1S60.55,68,60,68z M53,47.14c0-0.07,0-0.13,0.01-0.2
		L53.93,34h4.14l0.92,12.94C59,47,59,47.07,59,47.14c0,1.58-1.28,2.86-2.86,2.86h-0.28C54.28,50,53,48.72,53,47.14z"/>
	<g>
		<path class="st8" d="M58.99,46.94L58.35,38h-1.57L57,46.94c0,0.07,0,0.13,0,0.2c0,0.48-0.39,0.86-0.86,0.86c-0.55,0-1,0.45-1,1
			c0,0.53,0.42,0.96,0.94,0.99c-0.01,0-0.02,0.01-0.04,0.01h0.09c1.58,0,2.86-1.28,2.86-2.86C59,47.07,59,47,58.99,46.94z"/>
	</g>
	<g>
		<circle class="st2" cx="55.5" cy="45.5" r="0.5"/>
	</g>
	<g>
		<circle class="st7" cx="57.5" cy="46.5" r="0.5"/>
	</g>
	<g>
		<circle class="st7" cx="56.5" cy="48.5" r="0.5"/>
	</g>
	<g>
		<path class="st2" d="M54.32,38l-0.32,8.86c0,0.05,0,0.35,0,0.64c0,0.28,0.22,0.5,0.5,0.5c0.28,0,0.5-0.22,0.5-0.5
			c0-0.28,0-0.59,0-0.64L55.16,38H54.32z"/>
	</g>
</g>
<g>
	<g>
		<path class="st5" d="M14.14,51h-0.28C11.73,51,10,49.27,10,47.14v0c0-0.09,0-0.18,0.01-0.28L11,33h6l0.99,13.86
			C18,46.95,18,47.05,18,47.14v0C18,49.27,16.27,51,14.14,51z"/>
	</g>
	<g>
		<g>
			<path class="st6" d="M16.99,46.94L16.07,34h-1.38L15,46.94c0,0.07,0,0.13,0,0.2c0,1.58-0.43,2.86-0.95,2.86h0.09
				c1.58,0,2.86-1.28,2.86-2.86C17,47.07,17,47,16.99,46.94z"/>
		</g>
	</g>
	<g>
		<path class="st7" d="M17.36,38h-6.71l-0.63,8.86C10,46.95,10,47.05,10,47.14c0,2.13,1.73,3.86,3.86,3.86h0.28
			c2.13,0,3.86-1.73,3.86-3.86c0-0.09,0-0.18-0.01-0.28L17.36,38z"/>
	</g>
	<g>
		<circle class="st2" cx="14.5" cy="43.5" r="0.5"/>
	</g>
	<g>
		<circle class="st2" cx="13.5" cy="40.5" r="0.5"/>
	</g>
	<path class="st4" d="M18,68h-1c-1.1,0-2-0.9-2-2V51.91c2.27-0.41,4-2.39,4-4.78c0-0.12,0-0.23-0.01-0.35L18,32.93
		C17.96,32.41,17.52,32,17,32h-6c-0.52,0-0.96,0.41-1,0.93L9.01,46.79C9,46.91,9,47.02,9,47.14c0,2.39,1.73,4.37,4,4.78V66
		c0,1.1-0.9,2-2,2h-1c-0.55,0-1,0.45-1,1s0.45,1,1,1h1h6h1c0.55,0,1-0.45,1-1S18.55,68,18,68z M11,47.14c0-0.07,0-0.14,0.01-0.2
		L11.93,34h4.14l0.92,12.93C17,47,17,47.07,17,47.14c0,1.58-1.28,2.86-2.86,2.86h-0.28C12.28,50,11,48.72,11,47.14z"/>
	<g>
		<path class="st8" d="M16.99,46.94L16.35,38h-1.57L15,46.94c0,0.07,0,0.13,0,0.2c0,0.48-0.39,0.86-0.86,0.86c-0.55,0-1,0.45-1,1
			c0,0.53,0.42,0.96,0.94,0.99c-0.01,0-0.02,0.01-0.04,0.01h0.09c1.58,0,2.86-1.28,2.86-2.86C17,47.07,17,47,16.99,46.94z"/>
	</g>
	<g>
		<circle class="st2" cx="13.5" cy="45.5" r="0.5"/>
	</g>
	<g>
		<circle class="st7" cx="15.5" cy="46.5" r="0.5"/>
	</g>
	<g>
		<circle class="st7" cx="14.5" cy="48.5" r="0.5"/>
	</g>
	<g>
		<path class="st2" d="M12.32,38l-0.32,8.86c0,0.05,0,0.35,0,0.64c0,0.28,0.22,0.5,0.5,0.5c0.28,0,0.5-0.22,0.5-0.5
			c0-0.28,0-0.59,0-0.64L13.16,38H12.32z"/>
	</g>
</g>
<g>
	<g>
		<path class="st9" d="M46,69H24c-1.1,0-2-0.9-2-2V49.32c0-5.43,1.56-10.75,4.5-15.32l0,0c2.94-4.57,4.5-9.89,4.5-15.32V7
			c0-1.1,0.9-2,2-2h4c1.1,0,2,0.9,2,2v11.68c0,5.43,1.56,10.75,4.5,15.32l0,0c2.94,4.57,4.5,9.89,4.5,15.32V67
			C48,68.1,47.1,69,46,69z"/>
	</g>
	<g>
		<path class="st10" d="M32,66c0.55,0,1-0.45,1-1V49.32c0-5.25,0.25-10.36,0.72-14.78c0.51-4.74,0.78-10.23,0.78-15.86V7
			c0-0.55,0.07-1,0.17-1h-0.83c-0.32,0-0.58,0.45-0.58,1v11.68c0,5.63-0.94,11.12-2.72,15.86C28.88,38.96,28,44.07,28,49.32V65
			c0,0.55,0.45,1,1,1H32z"/>
	</g>
	<g>
		<path class="st11" d="M42.75,34.68c-3.04-4.8-4.75-10.32-4.75-16V7c0-0.55-0.45-1-1-1h-1.33C35.85,6,36,6.45,36,7v11.68
			c0,5.63,0.54,11.12,1.55,15.86C38.5,38.96,39,44.07,39,49.32V65c0,1.1-0.9,2-2,2H25c-0.55,0-1-0.45-1-1V49.32
			c0-5.25,1.38-10.36,3.98-14.78c0.49-0.82,0.92-1.68,1.32-2.54h-0.52c-0.46,0.9-0.95,1.78-1.5,2.64C24.44,39,23,44.12,23,49.32
			L23,67c0,0.55,0.45,1,1,1h0.92h13.75H39h7c0.55,0,1-0.45,1-1V49.32C47,44.12,45.53,39.07,42.75,34.68z"/>
	</g>
	<path class="st12" d="M29.65,27.26c-0.51,1.6-1.15,3.15-1.94,4.64L35,37v-6L29.65,27.26z"/>
	<path class="st13" d="M40.35,27.26L35,31v6l7.29-5.1C41.5,30.41,40.85,28.86,40.35,27.26z"/>
	<g>
		<path class="st8" d="M40.34,27.27L35,31l-5.34-3.73c0.07-0.2,0.13-0.41,0.19-0.61C30.61,24.08,31,21.4,31,18.68V7c0-1.1,0.9-2,2-2
			h4c1.1,0,2,0.9,2,2v11.68C39,21.61,39.45,24.51,40.34,27.27z"/>
	</g>
	<g>
		<path class="st14" d="M38,18.68V7h-1c-0.55,0-1,0.45-1,1v6h-4v1h1h1.32c0.93,0,1.68,0.75,1.68,1.68v2c0,3.84,0.25,7.6,0.73,11.11
			l2.78-1.94C38.54,24.9,38,21.82,38,18.68z"/>
	</g>
	<g>
		<path class="st7" d="M36.05,5H33c-0.5,0-0.96,0.19-1.31,0.49C31.09,6.01,31.46,7,32.25,7h0c0.55,0,1,0.45,1,1v10.68
			c0,3.55-0.38,7.05-1.1,10.33l1.94,1.36c0.27-3.67,0.41-7.64,0.41-11.69V8c0-0.55,0.45-1,1-1H36c1.28,0,1.36-1.98,0.08-2
			C36.07,5,36.06,5,36.05,5z"/>
	</g>
	<g>
		<path class="st8" d="M34.5,15.02V14h-1.25v1h1.07C34.38,15,34.44,15.01,34.5,15.02z"/>
	</g>
	<g>
		<path class="st7" d="M35,37L35,37c-1.1,0-2-0.9-2-2v-4c0-1.1,0.9-2,2-2h0c1.1,0,2,0.9,2,2v4C37,36.1,36.1,37,35,37z"/>
		<path class="st4" d="M44.34,33.46C41.5,29.04,40,23.93,40,18.68V14c0.55,0,1-0.45,1-1s-0.45-1-1-1V7c0-1.65-1.35-3-3-3h-4
			c-1.65,0-3,1.35-3,3v5c-0.55,0-1,0.45-1,1s0.45,1,1,1v4.68c0,5.25-1.5,10.36-4.34,14.78C22.61,38.2,21,43.69,21,49.32V67
			c0,1.65,1.35,3,3,3h22c1.65,0,3-1.35,3-3V49.32C49,43.69,47.39,38.2,44.34,33.46z M41,31.57c0,0,0,0.01,0,0.01l-3,2.1V31
			c0-0.28-0.05-0.54-0.12-0.79l1.94-1.36C40.16,29.77,40.57,30.68,41,31.57z M32,7c0-0.55,0.45-1,1-1h4c0.55,0,1,0.45,1,1v5h-6V7z
			 M38,14v4.68c0,2.79,0.4,5.54,1.17,8.19l-2.43,1.7C36.25,28.21,35.65,28,35,28c-0.65,0-1.25,0.21-1.74,0.56l-2.43-1.7
			c0.77-2.64,1.17-5.4,1.17-8.19V14H38z M36,31v4c0,0.55-0.45,1-1,1s-1-0.45-1-1v-4c0-0.55,0.45-1,1-1S36,30.45,36,31z M30.18,28.85
			l1.94,1.36C32.05,30.46,32,30.72,32,31v2.68l-3-2.1c0,0,0-0.01,0-0.01C29.43,30.68,29.84,29.77,30.18,28.85z M47,67
			c0,0.55-0.45,1-1,1H24c-0.55,0-1-0.45-1-1V49.32c0-5.25,1.5-10.36,4.34-14.78c0.25-0.39,0.47-0.79,0.7-1.19l4.29,3.01
			C32.84,37.33,33.84,38,35,38c1.16,0,2.16-0.67,2.66-1.64l4.29-3.01c0.23,0.4,0.46,0.8,0.71,1.19C45.5,38.96,47,44.07,47,49.32V67z
			"/>
	</g>
	<g>
		<path class="st15" d="M46,50v16c0,0.55-0.45,1-1,1l0,0c-0.55,0-1,0.45-1,1l0,0h2c0.55,0,1-0.45,1-1V49l0,0
			C46.45,49,46,49.45,46,50z"/>
	</g>
	<g>
		<path class="st2" d="M34.5,35L34.5,35c-0.28,0-0.5-0.22-0.5-0.5v-3c0-0.28,0.22-0.5,0.5-0.5l0,0c0.28,0,0.5,0.22,0.5,0.5v3
			C35,34.78,34.78,35,34.5,35z"/>
	</g>
	<g>
		<path class="st7" d="M32,11h2.5c0.28,0,0.5,0.22,0.5,0.5v0c0,0.28-0.22,0.5-0.5,0.5H32"/>
	</g>
	<g>
		<rect x="28" y="49" class="st5" width="14" height="10"/>
		<path class="st4" d="M42,60H28c-0.55,0-1-0.45-1-1V49c0-0.55,0.45-1,1-1h14c0.55,0,1,0.45,1,1v10C43,59.55,42.55,60,42,60z M29,58
			h12v-8H29V58z"/>
	</g>
	<g>
		<rect x="39" y="50" class="st6" width="2" height="8"/>
	</g>
	<g>
		<line class="st1" x1="32" y1="53" x2="38" y2="53"/>
		<path class="st4" d="M38,53.5h-6c-0.28,0-0.5-0.22-0.5-0.5s0.22-0.5,0.5-0.5h6c0.28,0,0.5,0.22,0.5,0.5S38.28,53.5,38,53.5z"/>
	</g>
	<g>
		<line class="st1" x1="33" y1="55" x2="37" y2="55"/>
		<path class="st4" d="M37,55.5h-4c-0.28,0-0.5-0.22-0.5-0.5s0.22-0.5,0.5-0.5h4c0.28,0,0.5,0.22,0.5,0.5S37.28,55.5,37,55.5z"/>
	</g>
</g>
<g>
	<circle class="st5" cx="57.5" cy="28.5" r="0.5"/>
</g>
<g>
	<circle class="st5" cx="56.5" cy="25.5" r="0.5"/>
</g>
<g>
	<circle class="st5" cx="54.5" cy="26.5" r="0.5"/>
</g>
<g>
	<circle class="st5" cx="55.5" cy="30.5" r="0.5"/>
</g>
<g>
	<circle class="st5" cx="16.5" cy="28.5" r="0.5"/>
</g>
<g>
	<circle class="st5" cx="15.5" cy="26.5" r="0.5"/>
</g>
<g>
	<circle class="st5" cx="15.5" cy="30.5" r="0.5"/>
</g>
<g>
	<circle class="st5" cx="12.5" cy="29.5" r="0.5"/>
</g>
</svg>
