<?xml version="1.0" encoding="utf-8"?>
<!-- Generator: Adobe Illustrator 23.0.1, SVG Export Plug-In . SVG Version: 6.00 Build 0)  -->
<svg version="1.1" id="Layer_1" xmlns="http://www.w3.org/2000/svg" xmlns:xlink="http://www.w3.org/1999/xlink" x="0px" y="0px"
	 viewBox="0 0 82 84" style="enable-background:new 0 0 82 84;" xml:space="preserve">
<style type="text/css">
	.st0{fill:#ABE1FA;}
	.st1{fill:#BFE7FB;}
	.st2{fill:#D4EFFC;}
	.st3{fill:#B0C4D9;}
	.st4{fill:#310E31;}
	.st5{fill:#D5E3EF;}
	.st6{fill:#FFFFFF;}
	.st7{fill:#C97629;}
	.st8{fill:#B06328;}
	.st9{fill:#A35425;}
	.st10{fill:#F04B4D;}
	.st11{fill:#CC3341;}
</style>
<path class="st0" d="M81.96,54.72c-0.34-3.95-2.89-7.44-7-10.19c-7.3-4.89-9.38-14.85-4.66-22.28c2.65-4.17,3.58-8.39,2.31-12.14
	C69.11-0.24,50.14-3.12,30.24,3.7c-2.04,0.7-4,1.47-5.89,2.31C27.69,7.62,30,11.04,30,15c0,5.52-4.48,10-10,10s-10-4.48-10-10
	c0-0.09,0.01-0.17,0.01-0.26C2.34,21.18-1.53,28.61,0.56,34.77c1.13,3.34,3.88,5.9,7.74,7.61c3.49,1.54,4.42,6,1.85,8.82
	c-2.85,3.12-4.33,6.57-4.03,10.08c0.93,10.9,18.67,18.26,39.61,16.45C66.68,75.91,82.9,65.61,81.96,54.72z"/>
<g>
	<path class="st1" d="M43.93,81.14l-5-10.8c0.51-0.12,1.01-0.25,1.51-0.41c0.21-0.07,0.38-0.23,0.47-0.44
		c0.08-0.21,0.07-0.45-0.03-0.64l-5.7-10.77c0.49-0.11,0.98-0.24,1.47-0.41c0.21-0.07,0.37-0.23,0.46-0.43s0.08-0.43-0.01-0.63
		l-8.8-18.48C27.95,37.44,27.25,37,26.5,37s-1.45,0.44-1.78,1.13l-8.8,18.48c-0.09,0.2-0.1,0.43-0.01,0.63s0.25,0.36,0.46,0.43
		c0.48,0.16,0.97,0.29,1.47,0.41l-5.7,10.77c-0.1,0.2-0.12,0.43-0.03,0.64c0.08,0.21,0.25,0.37,0.47,0.44c0.5,0.17,1,0.3,1.51,0.41
		l-5,10.8c-0.09,0.2-0.1,0.43-0.01,0.63s0.25,0.35,0.46,0.42c1.59,0.54,3.25,0.81,4.93,0.81h24.1c1.68,0,3.34-0.27,4.93-0.81
		c0.21-0.07,0.37-0.22,0.46-0.42C44.02,81.57,44.02,81.34,43.93,81.14z"/>
</g>
<g>
	<path class="st2" d="M78.91,80.58l-6.57-14.09c0.67-0.15,1.33-0.32,1.98-0.54c0.28-0.09,0.5-0.3,0.61-0.58
		c0.11-0.27,0.09-0.58-0.05-0.84l-7.49-14.05c0.65-0.15,1.29-0.32,1.93-0.53c0.27-0.09,0.49-0.29,0.6-0.56
		c0.11-0.26,0.1-0.56-0.02-0.82l-11.57-24.1C57.91,23.58,56.99,23,56,23s-1.91,0.58-2.33,1.47L42.1,48.57
		c-0.12,0.26-0.13,0.56-0.02,0.82s0.33,0.47,0.6,0.56c0.63,0.21,1.28,0.38,1.93,0.53l-7.49,14.05c-0.14,0.26-0.16,0.57-0.05,0.84
		s0.33,0.49,0.61,0.58c0.65,0.22,1.32,0.39,1.98,0.54l-6.57,14.09c-0.12,0.26-0.12,0.56-0.01,0.82s0.33,0.46,0.6,0.55
		c2.09,0.7,4.27,1.05,6.48,1.05h31.68c2.21,0,4.38-0.35,6.48-1.05c0.27-0.09,0.49-0.29,0.6-0.55
		C79.03,81.13,79.03,80.84,78.91,80.58z"/>
</g>
<g>
	<path class="st3" d="M59.3,83c0.44-1.25,0.7-2.6,0.7-4c0-6.63-5.37-12-12-12s-12,5.37-12,12c0,1.4,0.25,2.75,0.7,4H59.3z"/>
	<path class="st4" d="M59.3,84H36.7c-0.42,0-0.8-0.27-0.94-0.67C35.25,81.92,35,80.46,35,79c0-7.17,5.83-13,13-13s13,5.83,13,13
		c0,1.46-0.25,2.92-0.75,4.33C60.1,83.73,59.73,84,59.3,84z M37.43,82h21.15c0.28-0.99,0.43-1.99,0.43-3c0-6.07-4.93-11-11-11
		s-11,4.93-11,11C37,80.01,37.14,81.01,37.43,82z"/>
</g>
<g>
	<path class="st5" d="M42.3,83c0.44-1.25,0.7-2.6,0.7-4c0-6.63-5.37-12-12-12s-12,5.37-12,12c0,1.4,0.25,2.75,0.7,4H42.3z"/>
	<path class="st4" d="M42.3,84H19.7c-0.42,0-0.8-0.27-0.94-0.67C18.25,81.92,18,80.46,18,79c0-7.17,5.83-13,13-13s13,5.83,13,13
		c0,1.46-0.25,2.92-0.75,4.33C43.1,83.73,42.73,84,42.3,84z M20.43,82h21.15c0.28-0.99,0.43-1.99,0.43-3c0-6.07-4.93-11-11-11
		s-11,4.93-11,11C20,80.01,20.14,81.01,20.43,82z"/>
</g>
<g>
	<g>
		<path class="st6" d="M30,79c0-5.52-4.48-10-10-10c-4.84,0-8.88,3.44-9.8,8.01c-0.07,0-0.13-0.01-0.2-0.01c-3.31,0-6,2.69-6,6
			h25.16C29.7,81.77,30,80.42,30,79z"/>
	</g>
	<g>
		<path class="st5" d="M26.84,72.8c-0.7-0.88-2.09-0.28-1.94,0.83c0.12,0.89,0.13,1.81,0,2.76c-0.04,0.28-0.09,0.55-0.15,0.83
			c-0.5,2.23-2.58,3.78-4.88,3.78h-3.32c-1.31,0-2.61-0.54-3.4-1.59c-0.19-0.26-0.41-0.5-0.64-0.73c-0.48-0.46-1.28-0.08-1.2,0.58
			c0.08,0.68,0.06,1.39-0.11,2.12C11.14,81.59,11.07,81.8,11,82h2h1.27h7.86H25h3.54c0.13-0.43,0.25-0.86,0.32-1.31
			C29.35,77.7,28.51,74.9,26.84,72.8z"/>
	</g>
	<g>
		<path class="st4" d="M29.16,84H4c-0.55,0-1-0.45-1-1c0-3.66,2.82-6.67,6.41-6.98C10.72,71.33,15.06,68,20,68c6.07,0,11,4.93,11,11
			c0,1.52-0.31,3-0.92,4.4C29.92,83.76,29.56,84,29.16,84z M5.1,82h23.38c0.34-0.96,0.52-1.97,0.52-3c0-4.96-4.04-9-9-9
			c-4.27,0-7.98,3.03-8.82,7.21c-0.1,0.48-0.52,0.81-1.01,0.8c-0.01,0-0.12-0.01-0.13-0.01C7.59,78,5.57,79.72,5.1,82z"/>
	</g>
</g>
<g>
	<rect x="37" y="72" class="st7" width="8" height="11"/>
</g>
<g>
	<path class="st8" d="M38,72v2l0,0c1.66,0,3,1.34,3,3v3c0,1.1,0.9,2,2,2h2l-1-8v-2H38z"/>
</g>
<g>
	<path class="st9" d="M38,72v1h1c2.21,0,4,1.79,4,4l0,0c0,0.55,0.45,1,1,1l0,0v-5v-1H38z"/>
</g>
<g>
	<path class="st6" d="M56.32,55.68C57.23,55.52,58.13,55.3,59,55l-7.64-14.33C52.25,40.5,53.14,40.29,54,40L42.43,15.9
		C42.17,15.35,41.61,15,41,15s-1.17,0.35-1.43,0.9L28,40c0.86,0.29,1.75,0.5,2.64,0.67L23,55c0.88,0.29,1.78,0.51,2.68,0.68L19,71
		c1.99,0.66,4.07,0,6.16,0H57c2.09,0,4.01,0.66,6,0L56.32,55.68z"/>
</g>
<g>
	<path class="st5" d="M56.32,55.68C57.23,55.52,58.13,55.3,59,55l-8-15h3l-9.17-17.58c-0.56-1.07-2.19-0.56-2.04,0.64l1.77,13.55
		c0.23,1.8-1.16,3.39-2.97,3.39H31v2c7.74,0,14.33,5.49,15.82,13h-0.36H26l-1,2c0,0,2.54,0,4,0h3.86c8.11,0,14.99,5.97,16.14,14h6
		c2.09,0,6.01-0.34,8-1L56.32,55.68z"/>
</g>
<g>
	<path class="st3" d="M56.44,52.33L50.4,41h1.1c0.28,0,0.5-0.22,0.5-0.5S51.78,40,51.5,40h-12c-0.28,0-0.5,0.22-0.5,0.5
		s0.22,0.5,0.5,0.5h3.77c3.69,0,7.09,2.04,8.82,5.29l3.47,6.5c0.09,0.17,0.26,0.26,0.44,0.26c0.08,0,0.16-0.02,0.24-0.06
		C56.48,52.87,56.57,52.57,56.44,52.33z"/>
</g>
<g>
	<path class="st3" d="M60.45,66.91L55.36,56h0.14c0.28,0,0.5-0.22,0.5-0.5S55.78,55,55.5,55h-12c-0.28,0-0.5,0.22-0.5,0.5
		s0.22,0.5,0.5,0.5h4.39c3.89,0,7.42,2.25,9.06,5.77l2.6,5.56c0.08,0.18,0.27,0.29,0.45,0.29c0.07,0,0.14-0.01,0.21-0.05
		C60.46,67.46,60.57,67.16,60.45,66.91z"/>
</g>
<g>
	<path class="st4" d="M81,84H1c-0.55,0-1-0.45-1-1s0.45-1,1-1h80c0.55,0,1,0.45,1,1S81.55,84,81,84z"/>
</g>
<path class="st4" d="M63.92,70.6L57.7,56.35c0.58-0.13,1.09-0.25,1.56-0.38c0.29-0.08,0.54-0.29,0.66-0.57s0.11-0.6-0.03-0.87
	l-7.1-13.31c0.49-0.07,0.96-0.15,1.4-0.23c0.31-0.06,0.57-0.25,0.71-0.53s0.14-0.6,0.01-0.89l-11.57-24.1
	C42.91,14.58,41.99,14,41,14s-1.91,0.58-2.33,1.47L27.1,39.57c-0.13,0.28-0.13,0.61,0.01,0.89s0.4,0.47,0.71,0.53
	c0.44,0.08,0.91,0.16,1.4,0.23l-7.1,13.31c-0.14,0.27-0.16,0.59-0.03,0.87c0.12,0.28,0.36,0.49,0.66,0.57
	c0.47,0.13,0.98,0.25,1.56,0.38L18.08,70.6c-0.13,0.31-0.1,0.67,0.08,0.95S18.66,72,19,72h17v6.17c0,1.53-0.62,3.04-1.71,4.12
	c-0.29,0.29-0.37,0.72-0.22,1.09C34.23,83.76,34.6,84,35,84h12c0.4,0,0.77-0.24,0.92-0.62c0.16-0.37,0.07-0.8-0.22-1.09
	c-1.08-1.08-1.7-2.58-1.7-4.12V72h17c0.34,0,0.65-0.17,0.84-0.45S64.05,70.91,63.92,70.6z M45,82h-8c0.65-1.16,1-2.49,1-3.83V72h6
	v6.17C44,79.51,44.35,80.84,45,82z M45,70h-8H20.53l6.1-13.98c0.12-0.28,0.11-0.59-0.03-0.86c-0.14-0.27-0.39-0.46-0.69-0.52
	c-0.52-0.11-0.99-0.21-1.42-0.3l7.17-13.44c0.15-0.29,0.16-0.64,0-0.93s-0.44-0.49-0.76-0.53c-0.49-0.06-0.97-0.13-1.42-0.2
	l10.99-22.9c0.2-0.41,0.87-0.41,1.06,0l10.99,22.9c-0.45,0.07-0.93,0.13-1.42,0.2c-0.33,0.04-0.61,0.24-0.76,0.53s-0.15,0.64,0,0.93
	l7.17,13.44c-0.43,0.1-0.9,0.2-1.42,0.3c-0.3,0.06-0.55,0.25-0.69,0.52s-0.15,0.58-0.03,0.86L61.47,70H45z"/>
<g>
	<g>
		<path class="st6" d="M50,83h10h5h10c0-1.83-0.99-3.41-2.45-4.28C73.47,77.02,74,75.07,74,73c0-6.63-5.37-12-12-12s-12,5.37-12,12
			c0,2.28,0.66,4.4,1.76,6.22C50.69,80.14,50,81.48,50,83z"/>
	</g>
	<g>
		<path class="st6" d="M55.37,83h13.26C71.86,80.85,74,77.18,74,73c0-6.63-5.37-12-12-12s-12,5.37-12,12
			C50,77.18,52.14,80.85,55.37,83z"/>
	</g>
	<path class="st5" d="M73,79c0-2,1-3.81,1-6c0-5.91-4.28-10.81-9.9-11.8c0.87,1.07,1.57,2.36,2.07,3.8H54l0,0
		c1.32,0.66,2.76,1.07,4.23,1.2L67,67v3c0,3.01-0.83,5.76-2.2,7.86C63.91,79.23,62.35,80,60.72,80h-1.6c-0.57,0-0.88,0.61-0.61,1.1
		C58.82,81.67,59,82.31,59,83h16C76.54,81.98,73.61,80,73,79z"/>
	<g>
		<circle class="st6" cx="62" cy="55" r="8"/>
	</g>
	<g>
		<path class="st5" d="M65.63,47.87c0.56,1.09,0.87,2.32,0.87,3.63c0,4.42-3.58,8-8,8c-1.31,0-2.54-0.32-3.63-0.87
			C56.2,61.22,58.89,63,62,63c4.42,0,8-3.58,8-8C70,51.89,68.22,49.2,65.63,47.87z"/>
	</g>
	<g>
		<polygon class="st10" points="70,64 54,64 54,60 70,60 70,62 		"/>
	</g>
	<g>
		<circle class="st4" cx="59" cy="53" r="1"/>
	</g>
	<g>
		<circle class="st4" cx="63" cy="53" r="1"/>
	</g>
	<g>
		<path class="st4" d="M61,57.5c-1.66,0-3.22-0.77-4.38-2.18c-0.18-0.21-0.15-0.53,0.07-0.7c0.21-0.18,0.53-0.15,0.7,0.07
			c0.97,1.17,2.26,1.82,3.62,1.82s2.64-0.65,3.62-1.82c0.18-0.21,0.49-0.24,0.7-0.07c0.21,0.18,0.24,0.49,0.07,0.7
			C64.22,56.73,62.66,57.5,61,57.5z"/>
	</g>
	<g>
		<rect x="63" y="64" class="st10" width="4" height="8"/>
	</g>
	<g>
		<polygon class="st10" points="68,49 56,49 58,42 66,42 		"/>
	</g>
	<g>
		<g>
			<path class="st11" d="M66,43h-1.22c-1.15,0-2.06,0.96-2,2.11L63,49h5L66,43z"/>
		</g>
	</g>
	<rect x="64" y="65" class="st11" width="2" height="1"/>
	<rect x="64" y="67" class="st11" width="2" height="1"/>
	<rect x="64" y="69" class="st11" width="2" height="1"/>
	<rect x="61" y="61" class="st11" width="1" height="2"/>
	<rect x="59" y="61" class="st11" width="1" height="2"/>
	<rect x="65" y="61" class="st11" width="1" height="2"/>
	<rect x="67" y="61" class="st11" width="1" height="2"/>
	<rect x="57" y="61" class="st11" width="1" height="2"/>
	<rect x="63" y="61" class="st11" width="1" height="2"/>
	<path class="st4" d="M73.82,78.4C74.6,76.71,75,74.86,75,73c0-3.72-1.59-7.07-4.11-9.44c-0.05-0.1-0.11-0.19-0.19-0.26
		c-0.71-0.71-0.71-1.87,0-2.59c0.29-0.29,0.37-0.72,0.22-1.09c-0.15-0.36-0.49-0.59-0.88-0.61C70.65,57.8,71,56.44,71,55
		c0-2.17-0.78-4.16-2.06-5.71c0.06-0.18,0.08-0.37,0.02-0.56l-2-7C66.84,41.3,66.45,41,66,41h-8c-0.45,0-0.84,0.3-0.96,0.73l-2,7
		c-0.05,0.19-0.03,0.38,0.02,0.56C53.78,50.84,53,52.83,53,55c0,1.44,0.35,2.8,0.95,4.01c-0.39,0.02-0.73,0.25-0.88,0.61
		c-0.16,0.37-0.07,0.8,0.22,1.09c0.71,0.71,0.71,1.87,0,2.59c-0.08,0.08-0.14,0.17-0.19,0.26C50.59,65.93,49,69.28,49,73
		c0,2.1,0.52,4.17,1.51,6.05C49.54,80.14,49,81.54,49,83c0,0.55,0.45,1,1,1h25c0.55,0,1-0.45,1-1C76,81.19,75.2,79.53,73.82,78.4z
		 M58.75,43h6.49l1.43,5h-9.35L58.75,43z M57.13,50h9.75c1.31,1.27,2.13,3.04,2.13,5c0,1.49-0.47,2.87-1.26,4H56.26
		C55.47,57.87,55,56.49,55,55C55,53.04,55.82,51.27,57.13,50z M68.31,63H67h-4h-7.31c0.18-0.65,0.18-1.35,0-2H68.3
		C68.13,61.65,68.13,62.35,68.31,63z M66,65v6h-2v-6H66z M51.13,82c0.21-0.77,0.65-1.48,1.28-2.02c0.37-0.32,0.46-0.86,0.2-1.28
		C51.56,76.96,51,74.99,51,73c0-3.16,1.35-5.99,3.49-8H62v7c0,0.55,0.45,1,1,1h4c0.55,0,1-0.45,1-1v-7h1.51
		c2.14,2.01,3.49,4.84,3.49,8c0,1.51-0.33,3-0.93,4.38C71.42,77.14,70.73,77,70,77c-0.55,0-1,0.45-1,1s0.45,1,1,1
		c0.72,0,1.39,0.19,1.98,0.52l0,0c0.93,0.56,1.64,1.48,1.9,2.48H51.13z"/>
</g>
<g>
	<g>
		<circle class="st6" cx="57" cy="12" r="1"/>
	</g>
	<g>
		<circle class="st6" cx="29" cy="27" r="1"/>
	</g>
	<g>
		<circle class="st6" cx="43" cy="6" r="1"/>
	</g>
	<g>
		<circle class="st6" cx="19" cy="34" r="1"/>
	</g>
	<g>
		<circle class="st6" cx="13" cy="40" r="1"/>
	</g>
	<g>
		<circle class="st6" cx="63.5" cy="26.5" r="0.5"/>
	</g>
	<g>
		<circle class="st6" cx="76.5" cy="57.5" r="0.5"/>
	</g>
	<g>
		<circle class="st6" cx="50.5" cy="8.5" r="0.5"/>
	</g>
	<g>
		<circle class="st6" cx="7.5" cy="27.5" r="0.5"/>
	</g>
	<g>
		<circle class="st6" cx="11.5" cy="56.5" r="0.5"/>
	</g>
	<g>
		<circle class="st6" cx="22.5" cy="44.5" r="0.5"/>
	</g>
	<g>
		<circle class="st6" cx="63.5" cy="12.5" r="0.5"/>
	</g>
	<g>
		<circle class="st6" cx="61.5" cy="37.5" r="0.5"/>
	</g>
	<g>
		<circle class="st6" cx="21.5" cy="49.5" r="0.5"/>
	</g>
	<g>
		<circle class="st6" cx="51.5" cy="18.5" r="0.5"/>
	</g>
	<g>
		<circle class="st6" cx="59.5" cy="19.5" r="0.5"/>
	</g>
	<g>
		<circle class="st6" cx="56.5" cy="30.5" r="0.5"/>
	</g>
	<g>
		<circle class="st6" cx="13.5" cy="31.5" r="0.5"/>
	</g>
	<g>
		<circle class="st6" cx="5.5" cy="33.5" r="0.5"/>
	</g>
	<g>
		<circle class="st6" cx="17.5" cy="63.5" r="0.5"/>
	</g>
	<g>
		<circle class="st6" cx="74.5" cy="51.5" r="0.5"/>
	</g>
</g>
<g>
	<g>
		<path class="st6" d="M42,83c0-4.42-3.58-8-8-8c-2.75,0-5.17,1.39-6.61,3.5C26.66,78.18,25.85,78,25,78c-2.97,0-5.43,2.16-5.91,5
			H42z"/>
		<path class="st4" d="M42,84H19.09c-0.29,0-0.57-0.13-0.76-0.35s-0.27-0.52-0.22-0.81C18.67,79.45,21.57,77,25,77
			c0.7,0,1.38,0.1,2.04,0.3c1.7-2.08,4.25-3.3,6.96-3.3c4.96,0,9,4.04,9,9C43,83.55,42.55,84,42,84z M20.42,82h20.51
			c-0.49-3.39-3.41-6-6.93-6c-2.31,0-4.48,1.14-5.79,3.06c-0.27,0.4-0.78,0.55-1.22,0.35C26.36,79.14,25.69,79,25,79
			C22.97,79,21.2,80.21,20.42,82z"/>
	</g>
	<g>
		<path class="st5" d="M40.9,81.86c-0.27-1.65-1.12-3.11-2.33-4.15c-0.47-0.05-0.95,0.37-0.81,0.92c0,0.02,0.01,0.03,0.01,0.05
			c0.3,1.18-0.61,2.32-1.83,2.32h-6.97c-0.08-0.1-0.16-0.21-0.24-0.3c-0.32-0.36-0.92-0.08-0.82,0.39c0.06,0.29,0.08,0.6,0.08,0.91
			h1.58h8.28h3.08C40.92,81.95,40.91,81.91,40.9,81.86z"/>
	</g>
</g>
</svg>
